<svg width="393" height="417" viewBox="0 0 393 417" fill="none" xmlns="http://www.w3.org/2000/svg"><g clip-path="url(#clip0_407_259)"><path d="M59.11 224.23C58.53 224.01 57.95 223.8 57.37 223.62C46.5 219.77 40.39 214.52 31.11 223.43C23.51 230.73 16.76 237.42 17.86 248.99C19.11 261.99 28.98 269.84 37.07 278.85C44.61 287.24 53.19 293.32 64.91 294.48C77.49 295.73 89.83 290.39 98.22 281.14C107.99 270.36 108.6 262.36 98.44 250.57C91.29 242.3 82.59 235.37 72.97 230.21C68.51 227.8 63.87 225.97 59.14 224.26L59.11 224.23Z" fill="#D07D26"/><path d="M60.27 159.59C46.32 142.49 40.3 168.14 41.34 183.13C41.55 196.17 40.33 221.45 47.66 229.39C59.54 241.9 77.34 238.61 76.88 227.28C77.25 212.99 68.03 171.1 60.55 159.99L60.27 159.59Z" fill="#F6AB2D"/><path d="M18.05 255.89C23.91 257.81 28.95 257.02 34.62 255.34C45.98 251.95 52.18 246.55 54.81 234.61C56.97 224.75 55.29 213.97 49.55 205.57C47.02 201.88 43.39 198.43 38.93 198C34.69 197.57 30.69 199.89 27.24 202.4C17.1 209.78 -0.18 225.63 1.5 239.4C2.44 247.25 11.08 253.6 18.08 255.89H18.05Z" fill="#F6AB2D"/><path d="M55.26 212.96C49.25 212.69 41.61 213.63 37.43 218.52C32.94 223.74 35.84 230.43 39.57 235.16C50.04 248.41 69.06 255.43 85.55 256.07C88.02 256.17 90.65 256.07 92.72 254.73C101.06 249.33 88.08 230.82 83.78 226.21C76.39 218.31 66.13 213.42 55.32 212.93L55.26 212.96Z" fill="#F6AB2D"/><path d="M94.68 279.74C94.41 279.74 94.13 279.74 93.86 279.68C91.35 279.22 89.71 276.83 90.16 274.36C97.67 233.08 72.3 221.75 64.36 219.25C52.67 215.56 42.17 218.18 40.06 222.79C38.26 226.76 42.44 235.28 60.18 246.21C62.35 247.52 62.99 250.36 61.68 252.5C60.36 254.67 57.52 255.34 55.39 254C28.46 237.42 29.01 224.93 31.72 218.98C36.12 209.36 51.66 205.63 67.11 210.49C87.23 216.81 106.22 237.33 99.17 275.98C98.77 278.18 96.85 279.74 94.68 279.74Z" fill="#452B70"/><path d="M392.49 277.87C392.49 333.78 349.29 399.09 227.43 399.09C105.58 399.09 74.44 347 74.44 303.34C74.44 273.48 86.93 248.2 109.86 231.16C104.36 221.85 100.94 210.67 99.75 198.06C98.89 184.08 101.06 157.7 108.05 138.25C128.6 88.85 179.56 84.18 197.85 84.18C234.3 84.18 257.6 97.43 275.68 121.33C289.23 139.07 291.15 162.31 288.1 184.17C297.54 182.25 316.25 179.8 326.02 179.8C358.05 179.8 392.52 210.52 392.52 277.9L392.49 277.87Z" fill="#D07D26"/><path d="M380.06 248.99C380.06 304.89 336.86 370.2 215.01 370.2C169.03 370.2 104.05 362.36 76.33 322.73C74.99 316.22 74.44 309.72 74.44 303.37C74.44 275.8 85.09 252.1 104.79 235.22C106.41 233.81 108.11 232.47 109.86 231.16C109.18 230 108.51 228.81 107.9 227.59C105.92 223.74 104.3 219.59 103.02 215.19C102.56 213.72 102.16 212.23 101.83 210.7C100.85 206.67 100.18 202.46 99.75 198.06C98.89 184.08 101.06 157.7 108.05 138.25C128.6 88.85 179.56 84.18 197.85 84.18C234.33 84.18 257.6 97.4 275.68 121.33C281.87 129.43 285.63 138.71 287.61 148.45C289.93 159.99 289.75 172.2 288.1 184.05V184.14C297.5 182.22 316.25 179.77 325.99 179.77C343.85 179.77 362.51 189.33 375.45 209.51C378.78 222.4 380.06 235.98 380.06 248.99Z" fill="#F6AB2D"/><path d="M288.1 184.05V184.14C279.7 223.37 242.15 243.37 195.44 243.37C189.76 243.37 184.32 243.19 179.1 242.82C158.4 241.45 141.24 237.42 127.53 231.37C117.52 226.98 109.37 221.48 103.02 215.19C102.56 213.72 102.16 212.23 101.82 210.7C122.86 223.04 154.86 225.85 181.3 225.85C237.72 225.85 277.96 194.79 287.61 148.45C289.93 159.99 289.75 172.2 288.1 184.05Z" fill="#D07D26"/><path d="M189.97 233.63C187.22 237.11 183.53 240.26 179.1 242.82C170.52 247.92 159.16 251 146.71 251C128.85 251 113.25 244.65 104.79 235.22C106.41 233.81 108.11 232.47 109.86 231.16C109.18 230 108.51 228.81 107.9 227.59C114.41 229.26 121.06 230.4 127.53 231.37C130.8 231.86 134.01 232.29 137.12 232.72C154.68 235.07 172.54 236.41 189.97 233.63Z" fill="#D07D26"/><path d="M200.96 251.4C198.55 251.4 196.54 249.54 196.38 247.1C196.23 244.56 198.15 242.39 200.69 242.24C263.86 238.46 280.13 201.63 280.32 201.24C281.29 198.92 283.98 197.82 286.33 198.79C288.65 199.77 289.75 202.46 288.77 204.81C282.58 219.47 256.32 248.07 201.27 251.37H200.99L200.96 251.4Z" fill="#452B70"/><path d="M205.7 182.46C202.09 182.46 198.7 180.23 197.39 176.66C195.71 172.08 198.06 166.98 202.67 165.3L273.42 139.47C279.16 137.36 285.36 137.64 290.91 140.23C296.44 142.83 300.65 147.41 302.73 153.15L304.74 158.74C306.39 163.35 304.01 168.41 299.43 170.06C294.82 171.71 289.75 169.33 288.1 164.75L286.09 159.16C285.63 157.88 284.68 156.84 283.43 156.26C282.18 155.68 280.77 155.62 279.49 156.08L208.75 181.91C207.74 182.28 206.73 182.46 205.73 182.46H205.7Z" fill="#9384BC"/><path d="M161.45 145.55C157.45 144.94 153.52 144.36 149.09 143.56C142.04 142.74 134.86 141.76 127.66 140.81C121.15 139.93 114.47 139.01 108.05 138.25C108.05 138.25 99.81 137.09 95.08 136.84C90.19 136.57 84.27 137.27 79.78 141.21C77.34 143.35 74.47 147.13 74.47 153.09C74.16 160.35 75.6 181.21 85.43 191.8C91.54 198.4 99.75 198.12 99.75 198.12C100.42 198.06 101.12 198 101.73 197.82C110.8 195.38 115.96 188.32 120.14 182.64L121.33 181.03L121.82 180.26C123.56 177.45 126.19 175.96 128.88 176.08C131.69 176.2 134.13 178.06 135.69 181.57C146.31 201.82 160.42 212.69 176.66 213.05L177.03 213.11C177.85 213.18 178.64 213.24 179.47 213.24C185.64 213.24 191.65 210.79 196.78 206.24C204.53 199.31 209.63 187.71 209.51 177.45C209.69 152.84 182.92 148.84 161.42 145.61L161.45 145.55Z" fill="#9384BC"/><path d="M140.29 240.35H139.99C131.38 240.04 106.86 238.42 96.18 228.2C95.9 227.92 95.63 227.65 95.38 227.34C90.1 220.78 96.42 215.34 98.62 212.78C104.69 205.45 122.71 192.2 135.99 201.63C140.32 205.05 144.02 208.32 147.9 211.71C151.59 214.98 155.44 218.37 159.87 221.91C163.47 224.81 164.26 230 161.64 233.81C158.03 239.06 151.22 239.86 143.35 240.26L140.35 240.38H140.29V240.35Z" fill="#FFE8C7"/><mask id="mask0_407_259" style="mask-type:luminance" maskUnits="userSpaceOnUse" x="93" y="198" width="71" height="43"><path d="M140.29 240.35H139.99C131.38 240.04 106.86 238.42 96.18 228.2C95.9 227.92 95.63 227.65 95.38 227.34C90.1 220.78 96.42 215.34 98.62 212.78C104.69 205.45 122.71 192.2 135.99 201.63C140.32 205.05 144.02 208.32 147.9 211.71C151.59 214.97 155.44 218.36 159.87 221.91C163.47 224.81 164.26 230 161.64 233.81C158.03 239.06 151.22 239.86 143.35 240.26L140.35 240.38H140.29V240.35Z" fill="white"/></mask><g mask="url(#mask0_407_259)"><path d="M106.07 212.84C115.32 215.68 123.62 221.45 132.42 225.39C137.3 227.59 143.23 230.52 148.54 231.37C154.25 232.29 161.67 228.99 167.25 227.59C170.83 232.44 169.67 239.65 165.88 244.32C162.09 248.99 156.23 251.52 150.4 253.02C129.73 258.27 106.44 251.43 91.9 235.83C89.58 233.36 87.38 230.58 86.01 227.46C84.18 223.25 85.92 221.81 89.21 218.97C93.43 215.31 100.21 211.04 106.07 212.84Z" fill="#F6AB2E"/></g><path d="M151.41 236.1C147.29 236.1 143.38 235.22 139.81 234.18C130.71 231.53 122.62 227.1 116.14 223.53C111.72 221.11 107.93 219.01 104.82 217.97C103.53 217.54 100.82 218.03 97.55 220.05C95.38 221.36 92.57 220.69 91.26 218.55C89.95 216.38 90.62 213.57 92.76 212.26C98.07 208.96 103.53 207.89 107.75 209.3C111.62 210.58 115.78 212.87 120.6 215.53C127.01 219.04 134.31 223.04 142.43 225.42C149 227.34 154.52 227.92 160.11 224.59C162.28 223.31 165.09 224.01 166.4 226.18C167.71 228.35 166.98 231.16 164.81 232.47C160.26 235.19 155.74 236.17 151.47 236.17L151.41 236.1Z" fill="#452B70"/><path d="M128.2 130.16C127.41 130.16 126.62 129.94 125.91 129.55C123.72 128.26 122.98 125.45 124.27 123.29C124.63 122.65 133.76 107.32 155.01 99.69C157.39 98.83 160.02 100.08 160.87 102.43C161.73 104.81 160.51 107.44 158.09 108.3C139.96 114.83 132.24 127.78 132.14 127.9C131.29 129.36 129.76 130.19 128.17 130.19L128.2 130.16Z" fill="#FFE8C7"/><path d="M21.98 292.41C21.98 292.41 54.35 267.31 97.64 299.31C97.64 299.31 172.93 246.21 182.25 283.86L108.78 335.58L21.98 292.44V292.41Z" fill="#FFE8C7"/><path d="M108.79 340.13C108.08 340.13 107.38 339.98 106.74 339.64L19.94 296.5C18.53 295.8 17.59 294.42 17.43 292.87C17.28 291.31 17.95 289.75 19.17 288.81C19.51 288.53 53.43 263.01 97.7 293.72C109.55 285.69 151.44 259.1 173.76 267.4C180.35 269.88 184.84 275.16 186.7 282.76C187.16 284.59 186.43 286.51 184.9 287.62L111.44 339.34C110.65 339.89 109.73 340.16 108.82 340.16L108.79 340.13ZM31.78 292.16L108.42 330.24L176.9 282.06C175.59 279.04 173.54 277.08 170.61 275.98C153.51 269.6 114.1 293.36 100.33 303.06C98.71 304.19 96.54 304.19 94.95 303C66.32 281.84 42.9 287.28 31.78 292.19V292.16Z" fill="#452B70"/><path d="M192.87 281.26C192.87 281.26 219.19 350.78 226.49 383.61C226.49 383.61 177.76 394.41 151.59 404.67L111.23 311.03C111.23 311.03 135.29 295.06 192.87 281.29V281.26Z" fill="#FF8ABF"/><path d="M230.94 382.63C223.68 349.9 198.24 282.51 197.18 279.68C196.35 277.51 194.03 276.32 191.8 276.84C134.1 290.64 109.7 306.51 108.69 307.19C106.86 308.41 106.16 310.79 107.01 312.83L147.38 406.48C148.14 408.22 149.82 409.25 151.59 409.25C152.14 409.25 152.72 409.13 153.27 408.92C178.76 398.93 226.97 388.19 227.46 388.1C228.65 387.82 229.69 387.09 230.33 386.08C231 385.04 231.22 383.82 230.94 382.63ZM154.06 398.84L117.03 312.89C125.03 308.47 148.02 297.08 190 286.7C195.28 300.87 213.81 351.37 220.96 380.16C208.96 382.94 176.08 390.81 154.06 398.84Z" fill="#452B70"/><path d="M176.32 372.1C173.54 372.1 170.73 371.52 168.05 370.36C159.87 366.79 154.64 358.02 155.65 349.47C156.26 344.28 159.04 337.63 163.9 334.48C169.7 330.7 177.18 329.96 183.41 332.53C191.56 335.89 196.96 344.74 196.23 353.53C195.68 360.16 192.17 365.9 186.58 369.23C183.41 371.12 179.86 372.1 176.29 372.1H176.32ZM175.65 340.19C173.3 340.19 170.89 340.86 168.9 342.18C167.04 343.37 165.18 347.21 164.78 350.54C164.26 355.03 167.31 360.04 171.71 361.96C175.1 363.46 178.82 363.24 181.91 361.38C184.93 359.58 186.82 356.44 187.13 352.8C187.53 347.95 184.44 342.88 179.92 341.02C178.61 340.47 177.15 340.19 175.65 340.19Z" fill="#CF6396"/><path d="M147.56 345.5C146.92 345.5 146.25 345.38 145.64 345.07C143.35 344.01 142.37 341.29 143.44 339C145.12 335.37 147.78 331.52 150.8 327.03C153.7 322.79 156.97 317.96 159.75 312.77C160.87 310.67 163.44 309.78 165.61 310.76C172.6 313.84 186.46 319.46 191.44 320.92C193.85 321.63 195.25 324.19 194.55 326.6C193.85 329.01 191.31 330.42 188.87 329.72C184.05 328.31 172.97 323.86 165.73 320.8C163.29 324.95 160.69 328.77 158.34 332.19C155.53 336.34 153.09 339.95 151.68 342.91C150.92 344.56 149.27 345.53 147.53 345.53L147.56 345.5Z" fill="#CF6396"/><path d="M80.85 309.63C80.85 309.63 40.3 290.85 13.71 292.29L63.72 386.57C63.72 386.57 98.95 396.68 123.38 408.89L80.85 309.63Z" fill="#FF8ABF"/><path d="M123.38 413.44C122.68 413.44 121.98 413.28 121.33 412.95C97.61 401.07 62.8 391.06 62.47 390.93C61.28 390.6 60.27 389.77 59.69 388.68L9.65 294.42C8.92 293.05 8.95 291.37 9.71 290.02C10.47 288.68 11.88 287.8 13.43 287.7C40.82 286.24 81.06 304.68 82.74 305.48C83.78 305.96 84.57 306.79 85.03 307.83L127.56 407.09C128.33 408.86 127.9 410.9 126.5 412.21C125.61 413.04 124.48 413.47 123.35 413.47L123.38 413.44ZM66.87 382.69C73.34 384.61 94.95 391.24 114.47 399.67L77.37 313.05C70.56 310.05 43.05 298.48 21.4 296.93L66.9 382.69H66.87Z" fill="#452B70"/><path d="M80.85 309.63C80.85 309.63 97.03 318.45 111.23 311L151.59 404.64C151.59 404.64 137.33 417.83 123.38 408.86L80.85 309.6V309.63Z" fill="#FF8ABF"/><path d="M133.76 416.55C129.58 416.55 125.18 415.48 120.91 412.74C120.14 412.25 119.53 411.51 119.17 410.69L76.64 311.43C75.87 309.63 76.33 307.55 77.76 306.24C79.2 304.93 81.31 304.68 83.02 305.6C83.23 305.72 97.34 313.11 109.09 306.94C110.22 306.33 111.53 306.24 112.75 306.67C113.94 307.09 114.92 308.01 115.44 309.17L155.81 402.81C156.57 404.58 156.14 406.66 154.71 407.97C150.74 411.64 142.71 416.49 133.76 416.49V416.55ZM126.98 405.68C134.46 409.65 142.13 405.77 145.97 403.21L108.82 316.99C101.73 319.31 94.71 318.76 89.18 317.48L126.98 405.71V405.68Z" fill="#452B70"/><path d="M248.9 114.31C247.92 114.31 246.94 114.01 246.12 113.37C241.6 109.92 236.56 107.17 231.1 105.21C228.72 104.36 227.5 101.73 228.35 99.35C229.21 96.97 231.83 95.75 234.21 96.6C240.56 98.89 246.43 102.07 251.71 106.1C253.72 107.63 254.12 110.5 252.56 112.51C251.65 113.7 250.3 114.31 248.93 114.31H248.9Z" fill="#FFE8C7"/><path d="M84.97 275.16C84.63 275.16 84.33 275.12 83.99 275.03C81.52 274.48 79.96 272.07 80.48 269.6C80.64 268.9 84.36 252.2 95.93 241.48C97.79 239.77 100.69 239.86 102.41 241.72C104.11 243.59 104.02 246.49 102.16 248.2C92.73 256.93 89.46 271.4 89.43 271.55C88.97 273.69 87.05 275.16 84.97 275.16Z" fill="#FFE8C7"/><path d="M169.7 161.09C167.22 161.09 165.18 159.1 165.12 156.6C165 149.39 160.48 145.46 156.32 145.39C152.69 145.33 150.65 148.02 150.43 152.72C150.31 155.26 148.29 157.18 145.64 157.09C143.1 156.97 141.15 154.83 141.27 152.29C141.79 141.24 149.36 136.23 156.26 136.23C156.32 136.23 156.39 136.23 156.48 136.23C164.94 136.36 174.03 143.47 174.28 156.42C174.34 158.95 172.32 161.03 169.79 161.09C169.79 161.09 169.73 161.09 169.7 161.09Z" fill="#452B70"/><path d="M124.72 153.82C122.28 153.82 120.23 151.9 120.14 149.42C119.87 142.52 116.02 139.44 112.33 139.44C109.36 139.44 105.85 141.58 105.64 147.62C105.55 150.16 103.53 152.08 100.91 152.05C98.37 151.96 96.39 149.85 96.48 147.32C96.88 136.17 104.75 130.31 112.33 130.31C120.42 130.31 128.81 136.75 129.3 149.12C129.39 151.65 127.44 153.76 124.91 153.88C124.84 153.88 124.78 153.88 124.72 153.88V153.82Z" fill="#452B70"/><path d="M156.02 197.08C153.52 197.08 151.01 196.2 148.88 194.52C144.69 191.22 142.77 185.48 143.78 179.19C144.17 176.69 146.53 174.98 149.03 175.38C151.53 175.77 153.24 178.12 152.84 180.63C152.39 183.59 153.03 186.09 154.59 187.31C154.92 187.59 155.81 188.17 156.69 187.77C157.64 187.37 158.77 185.82 159.13 182.64C159.44 180.14 161.67 178.34 164.2 178.61C166.71 178.92 168.51 181.18 168.23 183.68C167.53 189.82 164.6 194.37 160.2 196.2C158.86 196.75 157.46 197.02 156.05 197.02L156.02 197.08Z" fill="#452B70"/><path d="M113.37 189.97C111.26 189.97 109.12 189.24 107.29 187.87C103.2 184.72 101.28 178.98 102.19 172.51C102.53 170.16 104.69 168.51 107.08 168.84C109.43 169.18 111.08 171.38 110.74 173.73C110.19 177.7 111.35 180.14 112.51 181.03C112.94 181.33 113.31 181.45 113.58 181.33C114.22 181.06 115.41 179.62 115.81 175.96C116.05 173.58 118.16 171.87 120.54 172.11C122.92 172.35 124.63 174.49 124.39 176.84C123.53 185.24 119.38 188.2 117 189.24C115.81 189.76 114.56 190 113.31 190L113.37 189.97Z" fill="#452B70"/><path d="M305.93 323.67C300.16 284.1 263.37 286.97 232.87 296.1C206.09 302.6 169.58 315.82 193.57 348.71C208.23 367.33 233.45 377.16 256.84 374.14C282.82 371.36 309.38 353.16 306.02 324.28L305.96 323.67H305.93Z" fill="#D07D26"/><mask id="mask1_407_259" style="mask-type:luminance" maskUnits="userSpaceOnUse" x="185" y="290" width="122" height="85"><path d="M305.93 323.67C300.16 284.1 263.37 286.97 232.87 296.1C206.09 302.6 169.58 315.82 193.57 348.7C208.23 367.33 233.45 377.16 256.84 374.14C282.82 371.36 309.38 353.16 306.02 324.28L305.96 323.67H305.93Z" fill="white"/></mask><g mask="url(#mask1_407_259)"><path d="M285.57 311.06C279.46 280.74 230.86 278.39 205.45 295.18C170.22 317.07 187.65 348.16 224.72 352.06C252.47 355.7 287.58 342.84 285.66 311.49L285.6 311.06H285.57Z" fill="#F6AB2D"/></g><path d="M249.18 378.72C246.73 378.72 244.69 376.77 244.59 374.29C244.5 371.76 246.49 369.65 249.02 369.56C271.83 368.77 287.4 361.87 295.34 349.01C304.22 334.66 301.05 316.28 298.24 310.08C297.2 307.8 298.21 305.08 300.5 304.01C302.79 302.97 305.51 303.98 306.57 306.27C309.44 312.53 314.94 334.72 303.15 353.81C293.51 369.41 275.4 377.77 249.36 378.69C249.3 378.69 249.24 378.69 249.21 378.69L249.18 378.72Z" fill="#452B70"/><path d="M199.38 315.03C197.76 315.03 196.17 314.14 195.34 312.62C194.16 310.39 194.98 307.61 197.21 306.42C211.56 298.67 218.43 297.2 219.16 297.05C221.63 296.56 224.05 298.18 224.53 300.68C225.02 303.15 223.4 305.54 220.96 306.05C220.84 306.05 214.61 307.46 201.57 314.51C200.87 314.88 200.14 315.06 199.41 315.06L199.38 315.03Z" fill="#FFE8C7"/><path d="M29.31 260.26C18.41 260.26 7.85 256.2 1.28 249.39C-0.46 247.56 -0.43 244.66 1.41 242.91C3.24 241.14 6.14 241.21 7.88 243.04C13.16 248.53 22.17 251.59 31.36 251.04C33.98 250.88 36.06 252.81 36.21 255.34C36.36 257.88 34.44 260.04 31.91 260.2C31.05 260.26 30.17 260.29 29.31 260.29V260.26Z" fill="#452B70"/><path d="M182.61 218.33C177.7 218.33 172.69 217.48 167.86 216.41C165.39 215.86 163.83 213.42 164.38 210.95C164.93 208.47 167.38 206.88 169.85 207.47C186.89 211.19 200.62 211.53 209.6 179.89C210 178.49 211.04 177.36 212.41 176.87C214.85 175.96 272.22 154.43 276.22 153.09C286.21 149.79 292.31 153.64 296.5 166.03C297.32 168.41 296.04 171.04 293.63 171.83C291.21 172.66 288.62 171.38 287.82 168.96C284.74 159.9 282.97 160.48 279.09 161.76C276.13 162.74 238.85 176.69 217.75 184.63C209.48 211.74 196.29 218.33 182.64 218.33H182.61Z" fill="#684E9B"/><path d="M106.31 226.64C105.34 226.64 104.33 226.49 103.29 226.12C100.45 225.08 99.02 223.04 98.07 221.69C97.8 221.33 97.4 220.72 97.22 220.62C97.22 220.62 96.85 220.5 95.81 220.65C93.34 220.99 90.99 219.31 90.59 216.81C90.22 214.3 91.93 211.98 94.44 211.59C101.43 210.55 104.12 214.37 105.55 216.41C105.83 216.81 106.25 217.39 106.41 217.51C106.92 217.51 108.21 216.93 109.12 216.53C112.15 215.22 116.73 213.24 121.76 216.17C123.96 217.45 124.69 220.23 123.41 222.43C122.13 224.62 119.35 225.36 117.15 224.07C116.27 223.56 115.38 223.8 112.76 224.93C110.99 225.69 108.79 226.67 106.31 226.67V226.64Z" fill="#452B70"/><path d="M77.89 118.89C75.93 121.88 73.67 123.78 71.11 124.57C68.54 125.36 66.04 124.94 63.57 123.32C61.73 122.13 60.51 120.57 59.87 118.65C59.26 116.75 59.23 114.52 59.87 111.99C60.48 109.46 61.7 106.59 63.54 103.38C64.57 101.55 65.18 100.14 65.34 99.17C65.49 98.19 65.25 97.49 64.57 97.06C63.78 96.54 62.9 96.51 61.92 96.97C60.94 97.43 60.02 98.25 59.23 99.5C58.44 100.75 58.01 101.94 58.01 103.17C58.01 104.36 58.41 105.46 59.23 106.4L53.67 114.89C51.75 113.24 50.41 111.29 49.67 109C48.91 106.71 48.76 104.3 49.22 101.73C49.64 99.2 50.68 96.69 52.27 94.25C53.95 91.72 55.87 89.79 58.04 88.51C60.21 87.23 62.5 86.68 64.88 86.83C67.26 86.98 69.61 87.81 71.9 89.3L81.12 95.35L83.08 92.36L91.05 97.58L84.11 108.14L81.12 106.19C81.43 108.17 81.34 110.25 80.79 112.48C80.24 114.71 79.29 116.84 77.95 118.89H77.89ZM72.54 111.93C73.34 110.71 73.83 109.33 73.98 107.84C74.13 106.34 73.98 104.97 73.46 103.69C72.97 102.4 72.18 101.39 71.08 100.69L70.8 100.51C70.8 100.97 70.71 101.67 70.41 102.62C70.13 103.59 69.7 104.57 69.18 105.55C69.18 105.64 69.15 105.73 69.12 105.79C69.09 105.85 69.03 105.94 68.97 106.04C67.9 108.08 67.35 109.67 67.32 110.8C67.32 111.93 67.72 112.78 68.57 113.36C69.25 113.82 69.92 113.91 70.62 113.67C71.32 113.42 71.96 112.84 72.54 111.96V111.93Z" fill="#9384BC"/><path d="M107.38 84.57C104.69 86.8 101.79 88.2 98.71 88.82C95.63 89.43 92.6 89.21 89.67 88.17C86.74 87.14 84.24 85.33 82.13 82.77C80.02 80.21 78.74 77.4 78.25 74.34C77.8 71.29 78.16 68.27 79.35 65.34C80.54 62.41 82.5 59.84 85.15 57.64C87.54 55.69 90.1 54.38 92.88 53.76C95.63 53.12 98.31 53.18 100.91 53.89C103.5 54.59 105.73 55.9 107.62 57.86L99.29 64.76C98.13 64.05 96.82 63.72 95.38 63.75C93.95 63.81 92.63 64.33 91.47 65.28C90.37 66.19 89.58 67.26 89.15 68.45C88.7 69.67 88.6 70.92 88.88 72.24C89.15 73.55 89.73 74.74 90.62 75.81C91.5 76.88 92.57 77.67 93.79 78.19C95.05 78.71 96.3 78.86 97.58 78.65C98.86 78.43 100.05 77.89 101.15 76.97C102.31 75.99 103.08 74.8 103.41 73.4C103.75 71.99 103.66 70.62 103.11 69.34L111.44 62.44C113 64.7 113.88 67.14 114.1 69.82C114.31 72.51 113.82 75.14 112.66 77.76C111.5 80.36 109.76 82.65 107.41 84.57H107.38Z" fill="#9384BC"/><path d="M140.66 64.36C136.57 66.25 133.12 66.83 130.34 66.04C127.56 65.25 125.36 63.17 123.78 59.75L118.25 47.87L111.63 50.96L107.5 42.07L110.74 40.58C112.21 39.91 113.12 38.99 113.52 37.89C113.92 36.76 113.76 35.51 113.12 34.07L111.78 31.2L120.72 27.05L124.05 34.38L134.16 29.68L138.28 38.56L128.17 43.26L132.66 52.88C133.24 54.13 133.97 54.9 134.8 55.11C135.66 55.32 136.84 55.11 138.37 54.38C140.23 53.52 142.16 52.42 144.11 51.11L148.26 60.06C147.07 60.82 145.76 61.58 144.36 62.41C142.92 63.23 141.7 63.87 140.63 64.36H140.66Z" fill="#9384BC"/><path d="M167.87 56.15C165.06 56.67 162.43 56.48 160.05 55.66C157.64 54.83 155.65 53.4 154.06 51.38C152.48 49.34 151.41 46.86 150.89 43.96L147.5 24.97L158.34 23.05L161.42 40.3C161.76 42.25 162.61 43.69 163.96 44.7C165.3 45.67 166.86 46.01 168.6 45.7C169.82 45.49 170.89 45 171.77 44.27C172.66 43.54 173.3 42.62 173.7 41.52C174.09 40.42 174.19 39.26 173.97 38.04L170.89 20.79L181.6 18.87L187.5 51.93L177.7 53.67L177.15 50.56C176.08 51.96 174.76 53.15 173.18 54.13C171.59 55.11 169.82 55.75 167.83 56.12L167.87 56.15Z" fill="#9384BC"/><path d="M204.32 53.43C200.75 53.06 198.03 51.97 196.14 50.07C194.24 48.18 193.45 45.77 193.75 42.81C193.97 40.61 194.76 38.81 196.17 37.37C197.57 35.94 199.53 34.9 202.06 34.29C204.59 33.68 207.71 33.4 211.37 33.55C213.48 33.62 215 33.49 215.92 33.19C216.84 32.88 217.36 32.3 217.45 31.51C217.54 30.56 217.17 29.77 216.29 29.1C215.43 28.43 214.27 28.03 212.81 27.88C211.34 27.72 210.06 27.94 208.99 28.49C207.92 29.04 207.16 29.89 206.67 31.05L196.56 30.04C197.11 27.57 198.24 25.49 199.92 23.75C201.6 22.04 203.68 20.76 206.12 19.97C208.59 19.17 211.25 18.93 214.15 19.2C217.17 19.51 219.77 20.33 221.91 21.65C224.04 22.96 225.6 24.73 226.58 26.93C227.55 29.13 227.92 31.57 227.65 34.29L226.58 45.25L230.12 45.58L229.17 55.08L216.59 53.86L216.93 50.32C215.34 51.51 213.42 52.39 211.22 52.91C208.99 53.46 206.67 53.61 204.23 53.37L204.32 53.43ZM208.01 45.49C209.48 45.65 210.91 45.43 212.29 44.88C213.66 44.33 214.82 43.51 215.74 42.5C216.65 41.46 217.17 40.3 217.29 39.02V38.68C216.93 38.93 216.26 39.14 215.28 39.33C214.3 39.51 213.24 39.6 212.1 39.6C212.01 39.63 211.92 39.66 211.86 39.63C211.8 39.63 211.71 39.63 211.56 39.63C209.26 39.63 207.62 39.88 206.58 40.39C205.57 40.91 204.99 41.68 204.9 42.68C204.81 43.48 205.05 44.15 205.57 44.64C206.09 45.16 206.91 45.43 207.98 45.55L208.01 45.49Z" fill="#9384BC"/><path d="M249.63 12.21L260.01 15.48L245.69 60.97L235.31 57.7L249.63 12.21Z" fill="#9384BC"/><path d="M275.76 21.74L285.56 26.5L264.71 69.4L254.91 64.64L275.76 21.74Z" fill="#9384BC"/><path d="M271.74 90.34C269.84 88.85 268.41 87.04 267.4 85C266.39 82.95 266.06 80.69 266.33 78.22C266.61 75.75 267.74 73.27 269.72 70.77L270.76 69.46L278.76 75.81L277.17 77.79C276.62 78.5 276.28 79.17 276.19 79.84C276.1 80.51 276.16 81.12 276.38 81.7C276.59 82.28 276.96 82.77 277.44 83.17C278.18 83.75 278.97 83.99 279.76 83.9C280.59 83.81 281.29 83.38 281.87 82.65L281.99 82.5C282.39 82.01 282.67 81.55 282.88 81.12C283.06 80.69 283.25 80.24 283.37 79.72L290.24 44.06L299.86 51.72L295.15 72.27C295.15 72.27 295.06 72.54 295 72.66C294.94 72.79 294.91 72.91 294.85 72.97C294.97 72.88 295.06 72.85 295.15 72.79C295.24 72.76 295.31 72.69 295.37 72.6L312.92 62.1L321.87 69.21L294.69 84.24C294.05 84.63 293.5 84.97 293.11 85.3C292.71 85.61 292.22 86.16 291.64 86.89L290.08 88.85C288.44 90.92 286.57 92.3 284.47 93C282.36 93.7 280.19 93.79 277.96 93.3C275.73 92.82 273.66 91.81 271.76 90.31L271.74 90.34Z" fill="#9384BC"/><path d="M305.65 104.66C304.37 103.05 303.85 101.24 304.1 99.26C304.34 97.27 305.26 95.66 306.88 94.37C308.52 93.06 310.33 92.54 312.31 92.79C314.3 93.03 315.88 93.98 317.17 95.6C318.42 97.18 318.94 98.95 318.72 100.94C318.51 102.92 317.59 104.57 315.94 105.85C314.33 107.14 312.52 107.62 310.51 107.38C308.52 107.14 306.91 106.19 305.65 104.63V104.66Z" fill="#9384BC"/><path d="M317.07 122.06C316.1 120.26 315.88 118.4 316.46 116.48C317.04 114.55 318.24 113.12 320.04 112.14C321.9 111.13 323.76 110.92 325.65 111.53C327.55 112.14 328.98 113.3 329.96 115.13C330.91 116.91 331.12 118.77 330.57 120.66C330.02 122.55 328.83 124.05 326.97 125.03C325.17 126 323.27 126.19 321.38 125.61C319.46 125.03 318.02 123.84 317.07 122.06Z" fill="#9384BC"/><path d="M325.26 141.09C324.62 139.13 324.74 137.27 325.66 135.47C326.57 133.7 327.98 132.48 329.93 131.84C331.92 131.2 333.81 131.32 335.58 132.2C337.32 133.12 338.54 134.55 339.18 136.51C339.82 138.43 339.7 140.26 338.81 142.06C337.93 143.87 336.5 145.09 334.51 145.73C332.56 146.37 330.66 146.22 328.89 145.3C327.09 144.39 325.9 142.95 325.26 141.06V141.09Z" fill="#9384BC"/><path d="M68.64 137.15C64.58 137.15 60.51 135.93 56.88 133.52C54.07 131.68 51.78 129.3 50.16 126.55C48.55 126.07 47.02 125.27 45.74 124.14C42.07 121.03 39.48 117.21 38.01 112.75C36.64 108.57 36.33 104.14 37.13 99.63C37.86 95.44 39.48 91.38 42.01 87.53C44.73 83.41 48.03 80.21 51.81 77.95C56.12 75.41 60.76 74.28 65.61 74.59C70.13 74.86 74.5 76.36 78.56 79.05L80.57 80.36C83.75 79.72 87.02 80.36 89.73 82.1L97.7 87.32C103.35 91.02 104.91 98.59 101.21 104.23L94.28 114.8C93.64 115.78 92.88 116.63 92.05 117.36C91.14 120.2 89.83 122.95 88.12 125.55C84.57 130.95 80.05 134.55 74.74 136.2C72.73 136.81 70.71 137.12 68.67 137.12L68.64 137.15Z" fill="#684E9B"/><path d="M95.26 101.39C91.96 101.39 88.73 100.81 85.55 99.68C80.54 97.88 76.21 94.83 72.7 90.56C69.18 86.28 66.99 81.46 66.16 76.21C65.37 70.92 65.98 65.73 68.02 60.73C69.98 55.93 73.12 51.72 77.34 48.24C81.18 45.06 85.49 42.89 90.13 41.86C94.86 40.79 99.53 40.88 104.08 42.1C108.78 43.38 112.91 45.83 116.3 49.31C117.24 50.28 118.01 51.38 118.59 52.6C119.65 53.4 120.6 54.34 121.39 55.47C124.2 59.53 125.82 64.05 126.22 68.91C126.58 73.61 125.76 78.25 123.78 82.71C121.85 87.04 118.95 90.86 115.14 94.01C110.86 97.52 106.13 99.84 101.03 100.81C99.11 101.18 97.18 101.39 95.26 101.39Z" fill="#684E9B"/><path d="M132.91 78.62C130.89 78.62 128.94 78.34 127.04 77.82C122.68 76.6 116.63 73.37 112.72 64.94L111.93 63.23C107.29 63.29 102.68 60.7 100.57 56.18L96.45 47.29C95.08 44.36 94.95 41 96.05 37.95C96.79 35.9 98.07 34.13 99.69 32.79C99.44 30.9 99.69 28.94 100.33 27.08C101.43 24.03 103.72 21.55 106.65 20.18L115.59 16.03C118.56 14.65 121.91 14.5 124.97 15.66C126.65 16.27 128.14 17.25 129.4 18.5C132.23 17.28 135.44 17.22 138.37 18.26C141.42 19.35 143.9 21.64 145.24 24.58L149.36 33.46C150.43 35.78 150.74 38.28 150.34 40.64C152.45 41.89 154.16 43.75 155.19 46.01L159.35 54.95C161.94 60.51 159.99 67.14 154.8 70.43C153.45 71.26 151.99 72.14 150.4 73.06C148.63 74.07 147.13 74.86 145.76 75.47C141.21 77.58 136.91 78.65 132.84 78.65L132.91 78.62Z" fill="#684E9B"/><path d="M164.75 68.66C161.76 68.66 158.86 68.18 156.11 67.23C151.44 65.64 147.53 62.83 144.45 58.92C141.61 55.32 139.75 51.02 138.89 46.13L135.5 27.17C134.92 24 135.65 20.7 137.52 18.04C139.38 15.39 142.19 13.58 145.39 13L156.23 11.08C158.52 10.68 160.81 10.93 162.83 11.72C164.51 10.23 166.55 9.22 168.78 8.82L179.5 6.9C186.15 5.71 192.47 10.13 193.66 16.76L199.56 49.83C200.14 53 199.41 56.3 197.54 58.96C195.68 61.61 192.87 63.41 189.66 63.99L179.86 65.73C178.95 65.89 178.03 65.95 177.15 65.92C174.92 66.99 172.54 67.72 170 68.18C168.23 68.48 166.46 68.66 164.72 68.66H164.75Z" fill="#684E9B"/><path d="M229.26 67.35C228.87 67.35 228.47 67.35 228.04 67.29L215.46 66.07C214.33 65.95 213.2 65.67 212.17 65.28C209.24 65.8 206.18 65.92 203.1 65.61C196.66 64.97 191.37 62.65 187.47 58.68C183.04 54.22 180.93 48.18 181.6 41.61C181.94 38.26 182.98 35.14 184.66 32.42C184.32 30.77 184.35 29.06 184.72 27.39C185.75 22.71 187.95 18.62 191.22 15.26C194.27 12.12 198.06 9.8 202.46 8.36C206.49 7.05 210.85 6.62 215.43 7.08C220.35 7.57 224.71 9.01 228.47 11.33C232.71 13.95 235.86 17.55 237.84 21.98C239.71 26.13 240.38 30.68 239.92 35.54L239.68 37.92C241.72 40.42 242.7 43.63 242.36 46.83L241.42 56.33C240.81 62.62 235.49 67.35 229.26 67.35Z" fill="#684E9B"/><path d="M245.69 73.18C244.47 73.18 243.22 73 242.03 72.63L231.65 69.37C225.21 67.35 221.63 60.48 223.68 54.04L238 8.55C240.01 2.1 246.88 -1.47 253.32 0.58L263.71 3.84C266.79 4.82 269.38 6.99 270.88 9.86C272.38 12.73 272.68 16.09 271.7 19.17L257.38 64.66C256.41 67.75 254.24 70.34 251.37 71.84C249.6 72.76 247.68 73.21 245.72 73.21L245.69 73.18Z" fill="#684E9B"/><path d="M264.68 81.61C262.88 81.61 261.08 81.21 259.34 80.39L249.54 75.62C246.64 74.22 244.41 71.69 243.34 68.63C242.27 65.58 242.48 62.22 243.89 59.29L264.74 16.39C267.7 10.32 275 7.81 281.08 10.74L290.88 15.51C293.78 16.91 296.01 19.45 297.07 22.5C298.14 25.55 297.93 28.91 296.53 31.84L275.67 74.74C273.57 79.07 269.2 81.61 264.68 81.61Z" fill="#684E9B"/><path d="M280.68 105.85C278.91 105.85 277.11 105.64 275.28 105.24C271.22 104.36 267.46 102.53 264.1 99.87C260.78 97.21 258.18 94.01 256.41 90.31C254.4 86.16 253.63 81.64 254.18 76.85C254.73 72.05 256.71 67.47 260.17 63.17L261.2 61.89C263.22 59.35 266.15 57.7 269.39 57.34C271.34 57.12 273.29 57.37 275.1 58.04L278.24 41.77C279.03 37.55 282 34.1 286 32.61C290 31.14 294.48 31.84 297.84 34.5L307.46 42.16C309.93 44.15 311.49 46.96 311.95 49.98C315 49.73 318.05 50.62 320.56 52.6L329.5 59.72C332.68 62.25 334.42 66.22 334.05 70.28C333.72 74.34 331.37 77.98 327.79 79.96L301.08 94.74L299.67 96.48C296.53 100.42 292.71 103.17 288.35 104.6C285.87 105.42 283.31 105.85 280.74 105.85H280.68Z" fill="#684E9B"/><path d="M311.55 119.68C310.69 119.68 309.84 119.62 308.98 119.53C303.76 118.86 299.3 116.33 296.07 112.2C292.77 108.02 291.37 103.04 292.01 97.82C292.65 92.57 295.18 88.08 299.37 84.78C303.61 81.43 308.65 80.02 313.9 80.69C319.06 81.37 323.52 83.9 326.81 88.08C330.02 92.17 331.45 97.09 330.9 102.25C330.36 107.5 327.73 112.2 323.52 115.53C319.97 118.31 315.91 119.74 311.58 119.74L311.55 119.68ZM311.52 95.26C310.42 95.26 309.23 95.62 308.4 96.26C307.61 96.88 306.75 98.19 306.6 99.68C306.48 100.84 306.88 102.22 307.58 103.14C308.28 104.05 309.56 104.75 310.78 104.91C312.25 105.09 313.69 104.57 314.45 103.96C315.36 103.23 316.1 101.91 316.25 100.69C316.4 99.44 316 98.01 315.27 97.09C314.54 96.17 313.26 95.44 312.1 95.29C311.91 95.29 311.73 95.26 311.52 95.26Z" fill="#684E9B"/><path d="M323.58 138.16C321.66 138.16 319.73 137.85 317.81 137.27C312.8 135.71 308.83 132.44 306.33 127.83C303.8 123.13 303.25 118 304.77 112.94C306.3 107.9 309.57 103.9 314.24 101.36C319 98.8 324.22 98.25 329.26 99.81C334.24 101.33 338.2 104.6 340.71 109.27C343.18 113.85 343.76 118.92 342.33 123.93C340.86 129.06 337.56 133.15 332.77 135.74C329.84 137.33 326.69 138.12 323.55 138.12L323.58 138.16ZM319.21 120.9C319.76 121.91 320.89 122.83 322.05 123.19C323.49 123.62 324.99 123.35 325.84 122.89C326.88 122.34 327.82 121.15 328.16 119.99C328.53 118.8 328.37 117.3 327.82 116.26L319.21 120.9ZM323.55 113.73C322.73 113.73 321.87 113.91 321.2 114.28C320.31 114.77 319.24 115.9 318.85 117.33C318.54 118.46 318.69 119.9 319.21 120.9L327.82 116.26C327.27 115.22 326.11 114.28 324.99 113.94C324.53 113.79 324.04 113.73 323.52 113.73H323.55Z" fill="#684E9B"/><path d="M332.1 158.37C329.07 158.37 326.08 157.64 323.27 156.17C318.63 153.76 315.31 149.85 313.66 144.87C312.01 139.81 312.37 134.65 314.75 129.94C317.14 125.24 321.08 121.88 326.14 120.23C331.27 118.55 336.49 118.95 341.2 121.36C345.84 123.78 349.17 127.71 350.81 132.72C352.43 137.67 352.1 142.77 349.81 147.44C347.52 152.14 343.46 155.68 338.33 157.36C336.25 158.03 334.17 158.37 332.13 158.37H332.1ZM327.55 140.32C327.92 141.39 328.86 142.49 329.93 143.07C331.27 143.77 332.8 143.77 333.72 143.47C334.81 143.1 335.94 142.12 336.49 141.03C337.04 139.93 337.2 138.43 336.83 137.3L327.55 140.35V140.32ZM332.1 133.94C331.61 133.94 331.12 134 330.69 134.16C329.72 134.46 328.46 135.41 327.79 136.75C327.3 137.79 327.18 139.22 327.55 140.32L336.83 137.27C336.46 136.14 335.52 135.04 334.45 134.49C333.75 134.13 332.92 133.94 332.1 133.94Z" fill="#684E9B"/><path d="M77.89 118.89C75.93 121.88 73.67 123.78 71.11 124.57C68.54 125.36 66.04 124.94 63.57 123.32C61.73 122.13 60.51 120.57 59.87 118.65C59.26 116.75 59.23 114.52 59.87 111.99C60.48 109.46 61.7 106.59 63.54 103.38C64.57 101.55 65.18 100.14 65.34 99.17C65.49 98.19 65.25 97.49 64.57 97.06C63.78 96.54 62.9 96.51 61.92 96.97C60.94 97.43 60.02 98.25 59.23 99.5C58.44 100.75 58.01 101.94 58.01 103.17C58.01 104.36 58.41 105.46 59.23 106.4L53.67 114.89C51.75 113.24 50.41 111.29 49.67 109C48.91 106.71 48.76 104.3 49.22 101.73C49.64 99.2 50.68 96.69 52.27 94.25C53.95 91.72 55.87 89.79 58.04 88.51C60.21 87.23 62.5 86.68 64.88 86.83C67.26 86.98 69.61 87.81 71.9 89.3L81.12 95.35L83.08 92.36L91.05 97.58L84.11 108.14L81.12 106.19C81.43 108.17 81.34 110.25 80.79 112.48C80.24 114.71 79.29 116.84 77.95 118.89H77.89ZM72.54 111.93C73.34 110.71 73.83 109.33 73.98 107.84C74.13 106.34 73.98 104.97 73.46 103.69C72.97 102.4 72.18 101.39 71.08 100.69L70.8 100.51C70.8 100.97 70.71 101.67 70.41 102.62C70.13 103.59 69.7 104.57 69.18 105.55C69.18 105.64 69.15 105.73 69.12 105.79C69.09 105.85 69.03 105.94 68.97 106.04C67.9 108.08 67.35 109.67 67.32 110.8C67.32 111.93 67.72 112.78 68.57 113.36C69.25 113.82 69.92 113.91 70.62 113.67C71.32 113.42 71.96 112.84 72.54 111.96V111.93Z" fill="#F6AB2E"/><path d="M107.38 84.57C104.69 86.8 101.79 88.2 98.71 88.82C95.63 89.43 92.6 89.21 89.67 88.17C86.74 87.14 84.24 85.33 82.13 82.77C80.02 80.21 78.74 77.4 78.25 74.34C77.8 71.29 78.16 68.27 79.35 65.34C80.54 62.41 82.5 59.84 85.15 57.64C87.54 55.69 90.1 54.38 92.88 53.76C95.63 53.12 98.31 53.18 100.91 53.89C103.5 54.59 105.73 55.9 107.62 57.86L99.29 64.76C98.13 64.05 96.82 63.72 95.38 63.75C93.95 63.81 92.63 64.33 91.47 65.28C90.37 66.19 89.58 67.26 89.15 68.45C88.7 69.67 88.6 70.92 88.88 72.24C89.15 73.55 89.73 74.74 90.62 75.81C91.5 76.88 92.57 77.67 93.79 78.19C95.05 78.71 96.3 78.86 97.58 78.65C98.86 78.43 100.05 77.89 101.15 76.97C102.31 75.99 103.08 74.8 103.41 73.4C103.75 71.99 103.66 70.62 103.11 69.34L111.44 62.44C113 64.7 113.88 67.14 114.1 69.82C114.31 72.51 113.82 75.14 112.66 77.76C111.5 80.36 109.76 82.65 107.41 84.57H107.38Z" fill="#F6AB2E"/><path d="M140.66 64.36C136.57 66.25 133.12 66.83 130.34 66.04C127.56 65.25 125.36 63.17 123.78 59.75L118.25 47.87L111.63 50.96L107.5 42.07L110.74 40.58C112.21 39.91 113.12 38.99 113.52 37.89C113.92 36.76 113.76 35.51 113.12 34.07L111.78 31.2L120.72 27.05L124.05 34.38L134.16 29.68L138.28 38.56L128.17 43.26L132.66 52.88C133.24 54.13 133.97 54.9 134.8 55.11C135.66 55.32 136.84 55.11 138.37 54.38C140.23 53.52 142.16 52.42 144.11 51.11L148.26 60.06C147.07 60.82 145.76 61.58 144.36 62.41C142.92 63.23 141.7 63.87 140.63 64.36H140.66Z" fill="#F6AB2E"/><path d="M167.87 56.15C165.06 56.67 162.43 56.48 160.05 55.66C157.64 54.83 155.65 53.4 154.06 51.38C152.48 49.34 151.41 46.86 150.89 43.96L147.5 24.97L158.34 23.05L161.42 40.3C161.76 42.25 162.61 43.69 163.96 44.7C165.3 45.67 166.86 46.01 168.6 45.7C169.82 45.49 170.89 45 171.77 44.27C172.66 43.54 173.3 42.62 173.7 41.52C174.09 40.42 174.19 39.26 173.97 38.04L170.89 20.79L181.6 18.87L187.5 51.93L177.7 53.67L177.15 50.56C176.08 51.96 174.76 53.15 173.18 54.13C171.59 55.11 169.82 55.75 167.83 56.12L167.87 56.15Z" fill="#F6AB2E"/><path d="M204.32 53.43C200.75 53.06 198.03 51.97 196.14 50.07C194.24 48.18 193.45 45.77 193.75 42.81C193.97 40.61 194.76 38.81 196.17 37.37C197.57 35.94 199.53 34.9 202.06 34.29C204.59 33.68 207.71 33.4 211.37 33.55C213.48 33.62 215 33.49 215.92 33.19C216.84 32.88 217.36 32.3 217.45 31.51C217.54 30.56 217.17 29.77 216.29 29.1C215.43 28.43 214.27 28.03 212.81 27.88C211.34 27.72 210.06 27.94 208.99 28.49C207.92 29.04 207.16 29.89 206.67 31.05L196.56 30.04C197.11 27.57 198.24 25.49 199.92 23.75C201.6 22.04 203.68 20.76 206.12 19.97C208.59 19.17 211.25 18.93 214.15 19.2C217.17 19.51 219.77 20.33 221.91 21.65C224.04 22.96 225.6 24.73 226.58 26.93C227.55 29.13 227.92 31.57 227.65 34.29L226.58 45.25L230.12 45.58L229.17 55.08L216.59 53.86L216.93 50.32C215.34 51.51 213.42 52.39 211.22 52.91C208.99 53.46 206.67 53.61 204.23 53.37L204.32 53.43ZM208.01 45.49C209.48 45.65 210.91 45.43 212.29 44.88C213.66 44.33 214.82 43.51 215.74 42.5C216.65 41.46 217.17 40.3 217.29 39.02V38.68C216.93 38.93 216.26 39.14 215.28 39.33C214.3 39.51 213.24 39.6 212.1 39.6C212.01 39.63 211.92 39.66 211.86 39.63C211.8 39.63 211.71 39.63 211.56 39.63C209.26 39.63 207.62 39.88 206.58 40.39C205.57 40.91 204.99 41.68 204.9 42.68C204.81 43.48 205.05 44.15 205.57 44.64C206.09 45.16 206.91 45.43 207.98 45.55L208.01 45.49Z" fill="#F6AB2E"/><path d="M249.63 12.21L260.01 15.48L245.69 60.97L235.31 57.7L249.63 12.21Z" fill="#F6AB2E"/><path d="M275.76 21.74L285.56 26.5L264.71 69.4L254.91 64.64L275.76 21.74Z" fill="#F6AB2E"/><path d="M271.74 90.34C269.84 88.85 268.41 87.04 267.4 85C266.39 82.95 266.06 80.69 266.33 78.22C266.61 75.75 267.74 73.27 269.72 70.77L270.76 69.46L278.76 75.81L277.17 77.79C276.62 78.5 276.28 79.17 276.19 79.84C276.1 80.51 276.16 81.12 276.38 81.7C276.59 82.28 276.96 82.77 277.44 83.17C278.18 83.75 278.97 83.99 279.76 83.9C280.59 83.81 281.29 83.38 281.87 82.65L281.99 82.5C282.39 82.01 282.67 81.55 282.88 81.12C283.06 80.69 283.25 80.24 283.37 79.72L290.24 44.06L299.86 51.72L295.15 72.27C295.15 72.27 295.06 72.54 295 72.66C294.94 72.79 294.91 72.91 294.85 72.97C294.97 72.88 295.06 72.85 295.15 72.79C295.24 72.76 295.31 72.69 295.37 72.6L312.92 62.1L321.87 69.21L294.69 84.24C294.05 84.63 293.5 84.97 293.11 85.3C292.71 85.61 292.22 86.16 291.64 86.89L290.08 88.85C288.44 90.92 286.57 92.3 284.47 93C282.36 93.7 280.19 93.79 277.96 93.3C275.73 92.82 273.66 91.81 271.76 90.31L271.74 90.34Z" fill="#F6AB2E"/><path d="M305.65 104.66C304.37 103.05 303.85 101.24 304.1 99.26C304.34 97.27 305.26 95.66 306.88 94.37C308.52 93.06 310.33 92.54 312.31 92.79C314.3 93.03 315.88 93.98 317.17 95.6C318.42 97.18 318.94 98.95 318.72 100.94C318.51 102.92 317.59 104.57 315.94 105.85C314.33 107.14 312.52 107.62 310.51 107.38C308.52 107.14 306.91 106.19 305.65 104.63V104.66Z" fill="#F6AB2E"/><path d="M317.07 122.06C316.1 120.26 315.88 118.4 316.46 116.48C317.04 114.55 318.24 113.12 320.04 112.14C321.9 111.13 323.76 110.92 325.65 111.53C327.55 112.14 328.98 113.3 329.96 115.13C330.91 116.91 331.12 118.77 330.57 120.66C330.02 122.55 328.83 124.05 326.97 125.03C325.17 126 323.27 126.19 321.38 125.61C319.46 125.03 318.02 123.84 317.07 122.06Z" fill="#F6AB2E"/><path d="M325.26 141.09C324.62 139.13 324.74 137.27 325.66 135.47C326.57 133.7 327.98 132.48 329.93 131.84C331.92 131.2 333.81 131.32 335.58 132.2C337.32 133.12 338.54 134.55 339.18 136.51C339.82 138.43 339.7 140.26 338.81 142.06C337.93 143.87 336.5 145.09 334.51 145.73C332.56 146.37 330.66 146.22 328.89 145.3C327.09 144.39 325.9 142.95 325.26 141.06V141.09Z" fill="#F6AB2E"/></g><defs><clipPath id="clip0_407_259"><rect width="392.49" height="416.55" fill="white"/></clipPath></defs></svg>