<svg width="617" height="459" viewBox="0 0 617 459" fill="none" xmlns="http://www.w3.org/2000/svg"><path d="M95.82 309.31C93.36 308.69 90.86 310.16 90.23 312.62C89.6 315.07 91.08 317.57 93.53 318.2C95.99 318.83 98.49 317.35 99.12 314.9C99.75 312.45 98.27 309.95 95.82 309.31Z" fill="#F6AB2E"/><path d="M127.94 290.3C125.48 289.67 122.98 291.15 122.35 293.6C121.72 296.06 123.2 298.56 125.65 299.19C128.11 299.82 130.61 298.34 131.24 295.89C131.87 293.43 130.39 290.93 127.94 290.3Z" fill="#F6AB2E"/><path d="M160.06 271.33C157.6 270.7 155.1 272.18 154.47 274.63C153.84 277.08 155.32 279.58 157.77 280.22C160.22 280.85 162.73 279.37 163.36 276.91C163.99 274.46 162.51 271.96 160.06 271.33Z" fill="#F6AB2E"/><path d="M192.18 252.35C189.73 251.72 187.23 253.19 186.6 255.65C185.97 258.1 187.45 260.6 189.9 261.23C192.35 261.86 194.85 260.38 195.49 257.93C196.12 255.48 194.64 252.98 192.18 252.35Z" fill="#F6AB2E"/><path d="M122.83 245C120.38 244.37 117.88 245.85 117.25 248.31C116.61 250.76 118.09 253.26 120.55 253.89C123 254.52 125.5 253.04 126.13 250.59C126.76 248.13 125.28 245.63 122.83 245Z" fill="#F6AB2E"/><path d="M154.95 226.04C152.5 225.41 150 226.89 149.37 229.34C148.74 231.8 150.21 234.3 152.67 234.93C155.12 235.56 157.62 234.08 158.25 231.63C158.88 229.17 157.41 226.67 154.95 226.04Z" fill="#F6AB2E"/><path d="M58.59 282.99C56.14 282.36 53.64 283.83 53.01 286.29C52.38 288.74 53.86 291.24 56.31 291.87C58.76 292.5 61.26 291.02 61.9 288.57C62.53 286.12 61.05 283.62 58.59 282.99Z" fill="#F6AB2E"/><path d="M90.71 264C88.25 263.37 85.75 264.85 85.12 267.3C84.49 269.75 85.97 272.25 88.42 272.89C90.88 273.52 93.38 272.04 94.01 269.58C94.64 267.13 93.16 264.63 90.71 264Z" fill="#F6AB2E"/><path d="M53.48 237.69C51.02 237.06 48.52 238.54 47.89 240.99C47.26 243.45 48.74 245.95 51.19 246.58C53.65 247.21 56.15 245.73 56.78 243.28C57.41 240.82 55.93 238.32 53.48 237.69Z" fill="#F6AB2E"/><path d="M85.61 218.7C83.16 218.06 80.66 219.54 80.02 222C79.39 224.45 80.87 226.95 83.33 227.58C85.78 228.21 88.28 226.73 88.91 224.28C89.54 221.83 88.06 219.33 85.61 218.7Z" fill="#F6AB2E"/><path d="M117.73 199.71C115.28 199.08 112.78 200.56 112.15 203.01C111.52 205.47 113 207.97 115.45 208.6C117.91 209.23 120.41 207.75 121.04 205.3C121.67 202.84 120.19 200.34 117.73 199.71Z" fill="#F6AB2E"/><path d="M149.85 180.71C147.39 180.08 144.89 181.56 144.26 184.01C143.63 186.47 145.11 188.97 147.56 189.6C150.02 190.23 152.52 188.75 153.15 186.3C153.78 183.84 152.3 181.34 149.85 180.71Z" fill="#F6AB2E"/><path d="M53.47 237.69C51.02 237.06 48.52 238.54 47.89 241C47.26 243.45 48.74 245.95 51.19 246.58C53.64 247.21 56.14 245.73 56.77 243.28C57.4 240.82 55.93 238.32 53.47 237.69Z" fill="#F6AB2E"/><path d="M85.6 218.71C83.15 218.08 80.65 219.56 80.02 222.01C79.39 224.47 80.87 226.97 83.32 227.6C85.77 228.23 88.27 226.75 88.91 224.3C89.54 221.84 88.06 219.34 85.6 218.71Z" fill="#F6AB2E"/><path d="M192.18 252.34C189.73 251.71 187.23 253.18 186.6 255.64C185.97 258.09 187.45 260.59 189.9 261.22C192.35 261.85 194.85 260.38 195.49 257.92C196.12 255.47 194.64 252.97 192.18 252.34Z" fill="#F6AB2E"/><path d="M224.29 233.34C221.84 232.71 219.34 234.19 218.71 236.64C218.08 239.09 219.56 241.59 222.01 242.22C224.47 242.85 226.97 241.38 227.6 238.92C228.23 236.47 226.75 233.97 224.29 233.34Z" fill="#F6AB2E"/><path d="M256.43 214.36C253.97 213.73 251.47 215.21 250.84 217.66C250.21 220.12 251.69 222.62 254.14 223.25C256.6 223.88 259.1 222.4 259.73 219.94C260.36 217.49 258.88 214.99 256.43 214.36Z" fill="#F6AB2E"/><path d="M288.54 195.36C286.08 194.73 283.58 196.21 282.95 198.66C282.32 201.12 283.8 203.62 286.25 204.25C288.7 204.88 291.21 203.4 291.84 200.94C292.47 198.49 290.99 195.99 288.54 195.36Z" fill="#F6AB2E"/><path d="M219.19 188.05C216.73 187.42 214.23 188.9 213.6 191.35C212.97 193.8 214.45 196.31 216.9 196.94C219.36 197.57 221.86 196.09 222.49 193.63C223.12 191.18 221.64 188.68 219.19 188.05Z" fill="#F6AB2E"/><path d="M251.31 169.07C248.85 168.44 246.35 169.91 245.72 172.37C245.09 174.82 246.57 177.32 249.03 177.95C251.48 178.58 253.98 177.11 254.61 174.65C255.24 172.2 253.76 169.7 251.31 169.07Z" fill="#F6AB2E"/><path d="M154.96 226.01C152.5 225.38 150 226.85 149.37 229.31C148.74 231.76 150.22 234.26 152.68 234.89C155.13 235.53 157.63 234.05 158.26 231.59C158.89 229.14 157.41 226.64 154.96 226.01Z" fill="#F6AB2E"/><path d="M187.07 207.03C184.62 206.4 182.12 207.87 181.49 210.33C180.85 212.78 182.33 215.28 184.79 215.91C187.24 216.54 189.74 215.06 190.37 212.61C191 210.16 189.52 207.66 187.07 207.03Z" fill="#F6AB2E"/><path d="M149.85 180.72C147.39 180.09 144.89 181.57 144.26 184.02C143.63 186.48 145.11 188.98 147.56 189.61C150.02 190.24 152.52 188.76 153.15 186.31C153.78 183.85 152.3 181.35 149.85 180.72Z" fill="#F6AB2E"/><path d="M181.97 161.73C179.52 161.1 177.02 162.58 176.39 165.03C175.75 167.49 177.23 169.99 179.69 170.62C182.14 171.25 184.64 169.77 185.27 167.31C185.9 164.86 184.43 162.36 181.97 161.73Z" fill="#F6AB2E"/><path d="M214.08 142.76C211.63 142.13 209.13 143.61 208.5 146.06C207.87 148.52 209.34 151.02 211.8 151.65C214.25 152.28 216.75 150.8 217.38 148.35C218.01 145.89 216.54 143.39 214.08 142.76Z" fill="#F6AB2E"/><path d="M246.21 123.77C243.75 123.14 241.25 124.61 240.62 127.07C239.99 129.52 241.47 132.02 243.92 132.65C246.38 133.28 248.88 131.81 249.51 129.35C250.14 126.9 248.66 124.4 246.21 123.77Z" fill="#F6AB2E"/><path d="M149.85 180.74C147.4 180.1 144.9 181.58 144.26 184.04C143.63 186.49 145.11 188.99 147.57 189.62C150.02 190.25 152.52 188.78 153.15 186.32C153.78 183.87 152.3 181.37 149.85 180.74Z" fill="#F6AB2E"/><path d="M181.97 161.76C179.51 161.13 177.01 162.61 176.38 165.06C175.75 167.51 177.23 170.01 179.68 170.65C182.13 171.28 184.64 169.8 185.27 167.34C185.9 164.89 184.42 162.39 181.97 161.76Z" fill="#F6AB2E"/><path d="M63.7 328.29C61.25 327.65 58.75 329.13 58.12 331.59C57.49 334.04 58.97 336.54 61.42 337.17C63.87 337.8 66.37 336.32 67 333.87C67.64 331.42 66.16 328.92 63.7 328.29Z" fill="#F6AB2E"/><path d="M26.47 301.98C24.02 301.35 21.52 302.83 20.89 305.28C20.26 307.74 21.73 310.24 24.19 310.87C26.64 311.5 29.14 310.02 29.77 307.56C30.4 305.11 28.92 302.61 26.47 301.98Z" fill="#F6AB2E"/><path d="M21.37 256.67C18.92 256.04 16.42 257.52 15.79 259.97C15.16 262.43 16.64 264.93 19.09 265.56C21.54 266.19 24.04 264.71 24.67 262.26C25.31 259.8 23.83 257.3 21.37 256.67Z" fill="#F6AB2E"/><path d="M21.37 256.67C18.91 256.04 16.41 257.52 15.78 259.98C15.15 262.43 16.63 264.93 19.08 265.56C21.54 266.19 24.04 264.71 24.67 262.26C25.3 259.81 23.82 257.3 21.37 256.67Z" fill="#F6AB2E"/><path d="M357.9 202.69C355.44 202.06 352.94 203.54 352.31 205.99C351.68 208.45 353.16 210.95 355.62 211.58C358.07 212.21 360.57 210.73 361.2 208.28C361.83 205.82 360.35 203.32 357.9 202.69Z" fill="#F6AB2E"/><path d="M288.54 195.37C286.08 194.74 283.58 196.22 282.95 198.67C282.32 201.13 283.8 203.63 286.25 204.26C288.71 204.89 291.21 203.41 291.84 200.96C292.47 198.5 290.99 196 288.54 195.37Z" fill="#F6AB2E"/><path d="M320.67 176.39C318.22 175.75 315.72 177.23 315.08 179.69C314.45 182.14 315.93 184.64 318.39 185.27C320.84 185.9 323.34 184.43 323.97 181.97C324.6 179.52 323.12 177.02 320.67 176.39Z" fill="#F6AB2E"/><path d="M352.8 157.39C350.34 156.76 347.84 158.24 347.21 160.7C346.58 163.15 348.06 165.65 350.51 166.28C352.96 166.91 355.47 165.43 356.1 162.98C356.73 160.53 355.25 158.03 352.8 157.39Z" fill="#F6AB2E"/><path d="M384.91 138.39C382.45 137.76 379.95 139.24 379.32 141.69C378.69 144.15 380.17 146.65 382.62 147.28C385.08 147.91 387.58 146.43 388.21 143.98C388.84 141.53 387.36 139.03 384.91 138.39Z" fill="#F6AB2E"/><path d="M315.57 131.09C313.11 130.46 310.61 131.94 309.98 134.39C309.35 136.84 310.83 139.34 313.28 139.97C315.74 140.6 318.24 139.13 318.87 136.67C319.5 134.22 318.02 131.72 315.57 131.09Z" fill="#F6AB2E"/><path d="M347.68 112.1C345.22 111.47 342.72 112.95 342.09 115.4C341.46 117.86 342.94 120.36 345.39 120.99C347.85 121.62 350.35 120.14 350.98 117.69C351.61 115.23 350.13 112.73 347.68 112.1Z" fill="#F6AB2E"/><path d="M251.32 169.06C248.86 168.43 246.36 169.91 245.73 172.36C245.1 174.82 246.58 177.32 249.03 177.95C251.49 178.58 253.99 177.1 254.62 174.65C255.25 172.19 253.77 169.69 251.32 169.06Z" fill="#F6AB2E"/><path d="M283.45 150.06C280.99 149.43 278.49 150.91 277.86 153.36C277.23 155.82 278.71 158.32 281.16 158.95C283.62 159.58 286.12 158.1 286.75 155.65C287.38 153.19 285.9 150.69 283.45 150.06Z" fill="#F6AB2E"/><path d="M246.21 123.76C243.76 123.13 241.26 124.61 240.63 127.06C240 129.51 241.47 132.01 243.93 132.65C246.38 133.28 248.88 131.8 249.51 129.34C250.15 126.89 248.67 124.39 246.21 123.76Z" fill="#F6AB2E"/><path d="M278.34 104.78C275.88 104.15 273.38 105.62 272.75 108.08C272.12 110.53 273.6 113.03 276.05 113.66C278.51 114.29 281.01 112.81 281.64 110.36C282.27 107.91 280.79 105.41 278.34 104.78Z" fill="#F6AB2E"/><path d="M310.44 85.8C307.99 85.17 305.49 86.65 304.86 89.1C304.23 91.56 305.71 94.06 308.16 94.69C310.62 95.32 313.12 93.84 313.75 91.39C314.38 88.93 312.9 86.43 310.44 85.8Z" fill="#F6AB2E"/><path d="M342.57 66.82C340.12 66.19 337.62 67.66 336.99 70.12C336.36 72.57 337.83 75.07 340.29 75.7C342.74 76.33 345.24 74.86 345.87 72.4C346.5 69.95 345.02 67.45 342.57 66.82Z" fill="#F6AB2E"/><path d="M246.21 123.76C243.75 123.12 241.25 124.6 240.62 127.06C239.99 129.51 241.47 132.01 243.92 132.64C246.38 133.27 248.88 131.79 249.51 129.34C250.14 126.89 248.66 124.39 246.21 123.76Z" fill="#F6AB2E"/><path d="M278.34 104.77C275.88 104.14 273.38 105.62 272.75 108.08C272.12 110.53 273.6 113.03 276.05 113.66C278.51 114.29 281.01 112.81 281.64 110.36C282.27 107.91 280.79 105.41 278.34 104.77Z" fill="#F6AB2E"/><path d="M442.56 345.95C440.1 345.32 437.6 346.8 436.97 349.25C436.34 351.7 437.82 354.2 440.27 354.84C442.73 355.47 445.23 353.99 445.86 351.53C446.49 349.08 445.01 346.58 442.56 345.95Z" fill="#F6AB2E"/><path d="M405.32 319.64C402.87 319.01 400.37 320.49 399.74 322.94C399.11 325.4 400.58 327.9 403.04 328.53C405.49 329.16 407.99 327.68 408.62 325.23C409.25 322.77 407.78 320.27 405.32 319.64Z" fill="#F6AB2E"/><path d="M437.45 300.66C435 300.03 432.5 301.51 431.87 303.96C431.24 306.42 432.72 308.92 435.17 309.55C437.62 310.18 440.12 308.7 440.75 306.25C441.38 303.79 439.91 301.29 437.45 300.66Z" fill="#F6AB2E"/><path d="M469.56 281.66C467.11 281.03 464.61 282.51 463.98 284.96C463.35 287.42 464.83 289.92 467.28 290.55C469.74 291.18 472.24 289.7 472.87 287.25C473.5 284.79 472.02 282.29 469.56 281.66Z" fill="#F6AB2E"/><path d="M400.23 274.33C397.78 273.7 395.28 275.18 394.65 277.63C394.01 280.09 395.49 282.59 397.95 283.22C400.4 283.85 402.9 282.37 403.53 279.92C404.16 277.46 402.69 274.96 400.23 274.33Z" fill="#F6AB2E"/><path d="M432.34 255.34C429.89 254.72 427.39 256.19 426.76 258.65C426.13 261.1 427.6 263.6 430.06 264.23C432.51 264.86 435.01 263.38 435.64 260.93C436.27 258.48 434.8 255.98 432.34 255.34Z" fill="#F6AB2E"/><path d="M363 248.01C360.55 247.38 358.05 248.85 357.42 251.31C356.79 253.76 358.26 256.26 360.72 256.89C363.17 257.52 365.67 256.05 366.3 253.59C366.93 251.14 365.45 248.64 363 248.01Z" fill="#F6AB2E"/><path d="M395.11 229.04C392.66 228.41 390.16 229.89 389.53 232.34C388.9 234.79 390.37 237.29 392.83 237.93C395.28 238.56 397.78 237.08 398.41 234.62C399.04 232.17 397.56 229.67 395.11 229.04Z" fill="#F6AB2E"/><path d="M427.24 210.04C424.79 209.41 422.28 210.89 421.65 213.34C421.02 215.8 422.5 218.3 424.95 218.93C427.41 219.56 429.91 218.08 430.54 215.63C431.17 213.18 429.69 210.67 427.24 210.04Z" fill="#F6AB2E"/><path d="M357.88 202.71C355.43 202.08 352.93 203.56 352.3 206.01C351.67 208.47 353.14 210.97 355.6 211.6C358.05 212.23 360.55 210.75 361.18 208.29C361.81 205.84 360.34 203.34 357.88 202.71Z" fill="#F6AB2E"/><path d="M390.01 183.72C387.56 183.09 385.06 184.57 384.43 187.02C383.79 189.47 385.27 191.97 387.73 192.6C390.18 193.24 392.68 191.76 393.31 189.3C393.94 186.85 392.46 184.35 390.01 183.72Z" fill="#F6AB2E"/><path d="M484.87 417.61C482.42 416.98 479.92 418.45 479.29 420.91C478.66 423.36 480.14 425.86 482.59 426.49C485.04 427.12 487.54 425.64 488.18 423.19C488.81 420.74 487.33 418.24 484.87 417.61Z" fill="#F6AB2E"/><path d="M517 398.61C514.54 397.98 512.04 399.46 511.41 401.91C510.78 404.37 512.26 406.87 514.72 407.5C517.17 408.13 519.67 406.65 520.3 404.19C520.93 401.74 519.45 399.24 517 398.61Z" fill="#F6AB2E"/><path d="M447.65 391.28C445.19 390.64 442.69 392.12 442.06 394.58C441.43 397.03 442.91 399.53 445.37 400.16C447.82 400.79 450.32 399.31 450.95 396.86C451.58 394.41 450.1 391.91 447.65 391.28Z" fill="#F6AB2E"/><path d="M479.78 372.28C477.33 371.65 474.82 373.13 474.19 375.58C473.56 378.04 475.04 380.54 477.5 381.17C479.95 381.8 482.45 380.32 483.08 377.87C483.71 375.41 482.23 372.91 479.78 372.28Z" fill="#F6AB2E"/><path d="M511.9 353.32C509.45 352.69 506.95 354.17 506.32 356.62C505.69 359.08 507.16 361.58 509.62 362.21C512.07 362.84 514.57 361.36 515.2 358.91C515.83 356.45 514.35 353.95 511.9 353.32Z" fill="#F6AB2E"/><path d="M442.56 345.97C440.1 345.34 437.6 346.82 436.97 349.27C436.34 351.72 437.82 354.23 440.27 354.86C442.73 355.49 445.23 354.01 445.86 351.55C446.49 349.1 445.01 346.6 442.56 345.97Z" fill="#F6AB2E"/><path d="M474.67 327C472.22 326.37 469.72 327.84 469.09 330.3C468.46 332.75 469.94 335.25 472.39 335.88C474.84 336.51 477.34 335.04 477.97 332.58C478.6 330.13 477.13 327.63 474.67 327Z" fill="#F6AB2E"/><path d="M422.13 164.73C419.68 164.1 417.18 165.58 416.55 168.03C415.92 170.49 417.39 172.99 419.85 173.62C422.3 174.25 424.8 172.77 425.43 170.32C426.06 167.86 424.58 165.36 422.13 164.73Z" fill="#F6AB2E"/><path d="M384.91 138.39C382.45 137.76 379.95 139.24 379.32 141.69C378.69 144.15 380.17 146.65 382.62 147.28C385.08 147.91 387.58 146.43 388.21 143.98C388.84 141.53 387.36 139.03 384.91 138.39Z" fill="#F6AB2E"/><path d="M347.68 112.1C345.23 111.47 342.73 112.95 342.1 115.4C341.46 117.86 342.94 120.36 345.4 120.99C347.85 121.62 350.35 120.14 350.98 117.69C351.61 115.23 350.13 112.73 347.68 112.1Z" fill="#F6AB2E"/><path d="M379.81 93.12C377.36 92.49 374.85 93.97 374.22 96.42C373.59 98.88 375.07 101.38 377.52 102.01C379.98 102.64 382.48 101.16 383.11 98.71C383.74 96.25 382.26 93.75 379.81 93.12Z" fill="#F6AB2E"/><path d="M342.58 66.81C340.12 66.18 337.62 67.66 336.99 70.12C336.36 72.57 337.84 75.07 340.29 75.7C342.75 76.33 345.25 74.85 345.88 72.4C346.51 69.95 345.03 67.44 342.58 66.81Z" fill="#F6AB2E"/><path d="M342.57 66.84C340.11 66.2 337.61 67.68 336.98 70.14C336.35 72.59 337.83 75.09 340.28 75.72C342.74 76.35 345.24 74.87 345.87 72.42C346.5 69.97 345.02 67.47 342.57 66.84Z" fill="#F6AB2E"/><path d="M506.78 308.03C504.33 307.4 501.83 308.88 501.2 311.33C500.57 313.78 502.05 316.29 504.5 316.92C506.95 317.55 509.45 316.07 510.08 313.61C510.71 311.16 509.24 308.66 506.78 308.03Z" fill="#F6AB2E"/><path d="M469.56 281.68C467.11 281.05 464.61 282.53 463.98 284.98C463.35 287.44 464.83 289.94 467.28 290.57C469.74 291.2 472.24 289.72 472.87 287.27C473.5 284.81 472.02 282.31 469.56 281.68Z" fill="#F6AB2E"/><path d="M432.34 255.38C429.88 254.74 427.38 256.22 426.75 258.68C426.12 261.13 427.6 263.63 430.05 264.26C432.51 264.89 435.01 263.41 435.64 260.96C436.27 258.51 434.79 256 432.34 255.38Z" fill="#F6AB2E"/><path d="M464.46 236.39C462.01 235.76 459.51 237.24 458.88 239.69C458.25 242.15 459.73 244.65 462.18 245.28C464.63 245.91 467.13 244.43 467.76 241.98C468.39 239.52 466.92 237.02 464.46 236.39Z" fill="#F6AB2E"/><path d="M427.24 210.05C424.79 209.42 422.28 210.9 421.65 213.35C421.02 215.81 422.5 218.31 424.95 218.94C427.41 219.57 429.91 218.09 430.54 215.63C431.17 213.18 429.69 210.68 427.24 210.05Z" fill="#F6AB2E"/><path d="M390.02 183.73C387.56 183.1 385.06 184.58 384.43 187.03C383.8 189.49 385.28 191.99 387.73 192.62C390.19 193.25 392.69 191.77 393.32 189.32C393.95 186.87 392.47 184.37 390.02 183.73Z" fill="#F6AB2E"/><path d="M422.12 164.76C419.67 164.13 417.17 165.6 416.54 168.06C415.91 170.51 417.38 173.01 419.84 173.64C422.29 174.27 424.79 172.79 425.42 170.34C426.05 167.89 424.57 165.39 422.12 164.76Z" fill="#F6AB2E"/><path d="M517.01 398.58C514.56 397.95 512.06 399.43 511.43 401.88C510.8 404.33 512.28 406.83 514.73 407.46C517.18 408.1 519.68 406.62 520.32 404.16C520.95 401.71 519.47 399.21 517.01 398.58Z" fill="#F6AB2E"/><path d="M549.13 379.6C546.68 378.97 544.18 380.45 543.55 382.9C542.92 385.36 544.4 387.86 546.85 388.49C549.3 389.12 551.81 387.64 552.44 385.19C553.07 382.74 551.59 380.23 549.13 379.6Z" fill="#F6AB2E"/><path d="M511.91 353.27C509.46 352.64 506.96 354.12 506.32 356.58C505.69 359.03 507.17 361.53 509.63 362.16C512.08 362.79 514.58 361.31 515.21 358.86C515.84 356.4 514.36 353.9 511.91 353.27Z" fill="#F6AB2E"/><path d="M474.69 326.94C472.23 326.31 469.73 327.79 469.1 330.25C468.47 332.7 469.95 335.2 472.4 335.83C474.86 336.46 477.36 334.98 477.99 332.53C478.62 330.08 477.14 327.57 474.69 326.94Z" fill="#F6AB2E"/><path d="M506.79 307.98C504.34 307.35 501.84 308.83 501.21 311.28C500.58 313.74 502.06 316.24 504.51 316.87C506.96 317.5 509.46 316.02 510.09 313.57C510.73 311.11 509.25 308.61 506.79 307.98Z" fill="#F6AB2E"/></svg>