<svg width="677" height="422" viewBox="0 0 677 422" fill="none" xmlns="http://www.w3.org/2000/svg"><path d="M119.93 374.98C116.88 375.08 114.49 377.63 114.59 380.68C114.69 383.73 117.25 386.11 120.3 386.01C123.34 385.91 125.73 383.36 125.63 380.31C125.53 377.26 122.97 374.87 119.93 374.98Z" fill="#4C3572"/><path d="M150.6 342.16C147.55 342.26 145.16 344.81 145.26 347.86C145.37 350.91 147.92 353.3 150.97 353.2C154.01 353.1 156.4 350.54 156.3 347.49C156.2 344.45 153.65 342.06 150.6 342.16Z" fill="#4C3572"/><path d="M181.28 309.35C178.23 309.45 175.84 312.01 175.95 315.05C176.05 318.1 178.6 320.49 181.65 320.39C184.7 320.29 187.09 317.73 186.98 314.69C186.88 311.64 184.33 309.25 181.28 309.35Z" fill="#4C3572"/><path d="M211.97 276.57C208.92 276.67 206.53 279.23 206.63 282.28C206.73 285.32 209.29 287.71 212.33 287.61C215.38 287.51 217.77 284.95 217.67 281.91C217.57 278.86 215.01 276.47 211.97 276.57Z" fill="#4C3572"/><path d="M129.38 291.56C126.33 291.66 123.94 294.21 124.04 297.26C124.14 300.31 126.7 302.69 129.75 302.59C132.79 302.49 135.18 299.94 135.08 296.89C134.98 293.84 132.43 291.45 129.38 291.56Z" fill="#4C3572"/><path d="M160.06 258.76C157.02 258.86 154.63 261.41 154.73 264.46C154.83 267.51 157.38 269.9 160.43 269.79C163.48 269.69 165.87 267.14 165.77 264.09C165.67 261.04 163.11 258.65 160.06 258.76Z" fill="#4C3572"/><path d="M68.03 357.15C64.98 357.25 62.59 359.8 62.69 362.85C62.79 365.9 65.35 368.29 68.39 368.18C71.44 368.08 73.83 365.53 73.73 362.48C73.63 359.43 71.07 357.04 68.03 357.15Z" fill="#4C3572"/><path d="M98.69 324.37C95.64 324.47 93.26 327.02 93.36 330.07C93.46 333.12 96.01 335.51 99.06 335.4C102.11 335.3 104.5 332.75 104.39 329.7C104.29 326.65 101.74 324.27 98.69 324.37Z" fill="#4C3572"/><path d="M46.79 306.57C43.74 306.68 41.35 309.23 41.45 312.28C41.56 315.32 44.11 317.71 47.16 317.61C50.21 317.51 52.59 314.96 52.49 311.91C52.39 308.86 49.84 306.47 46.79 306.57Z" fill="#4C3572"/><path d="M77.47 273.76C74.42 273.86 72.04 276.42 72.14 279.46C72.24 282.51 74.79 284.9 77.84 284.8C80.89 284.7 83.28 282.14 83.18 279.1C83.07 276.05 80.52 273.66 77.47 273.76Z" fill="#4C3572"/><path d="M108.16 240.96C105.11 241.06 102.72 243.62 102.83 246.67C102.93 249.71 105.48 252.1 108.53 252C111.58 251.9 113.97 249.35 113.86 246.3C113.76 243.25 111.21 240.86 108.16 240.96Z" fill="#4C3572"/><path d="M138.83 208.16C135.78 208.26 133.39 210.82 133.49 213.87C133.59 216.91 136.15 219.3 139.19 219.2C142.24 219.1 144.63 216.54 144.53 213.5C144.43 210.45 141.87 208.06 138.83 208.16Z" fill="#4C3572"/><path d="M46.79 306.56C43.74 306.66 41.35 309.22 41.45 312.26C41.55 315.31 44.11 317.7 47.16 317.6C50.2 317.5 52.59 314.94 52.49 311.9C52.39 308.85 49.83 306.46 46.79 306.56Z" fill="#4C3572"/><path d="M77.47 273.76C74.42 273.86 72.04 276.42 72.14 279.46C72.24 282.51 74.79 284.9 77.84 284.8C80.89 284.69 83.28 282.14 83.18 279.09C83.07 276.05 80.52 273.66 77.47 273.76Z" fill="#4C3572"/><path d="M211.97 276.58C208.92 276.69 206.53 279.24 206.63 282.29C206.73 285.34 209.29 287.72 212.34 287.62C215.38 287.52 217.77 284.97 217.67 281.92C217.57 278.87 215.01 276.48 211.97 276.58Z" fill="#4C3572"/><path d="M242.63 243.77C239.59 243.87 237.2 246.42 237.3 249.47C237.4 252.52 239.96 254.91 243 254.81C246.05 254.71 248.44 252.15 248.34 249.1C248.24 246.06 245.68 243.67 242.63 243.77Z" fill="#4C3572"/><path d="M273.32 210.99C270.27 211.1 267.88 213.65 267.98 216.7C268.09 219.75 270.64 222.13 273.69 222.03C276.74 221.93 279.12 219.38 279.02 216.33C278.92 213.28 276.37 210.89 273.32 210.99Z" fill="#4C3572"/><path d="M303.98 178.17C300.94 178.28 298.55 180.83 298.65 183.88C298.75 186.92 301.31 189.31 304.35 189.21C307.4 189.11 309.79 186.56 309.69 183.51C309.58 180.46 307.03 178.07 303.98 178.17Z" fill="#4C3572"/><path d="M221.42 193.18C218.37 193.28 215.98 195.84 216.08 198.88C216.18 201.93 218.74 204.32 221.78 204.22C224.83 204.12 227.22 201.56 227.12 198.51C227.02 195.47 224.46 193.08 221.42 193.18Z" fill="#4C3572"/><path d="M252.08 160.4C249.04 160.5 246.65 163.06 246.75 166.1C246.85 169.15 249.41 171.54 252.45 171.44C255.5 171.34 257.89 168.78 257.79 165.74C257.69 162.69 255.13 160.3 252.08 160.4Z" fill="#4C3572"/><path d="M160.07 258.76C157.02 258.86 154.63 261.41 154.73 264.46C154.83 267.51 157.39 269.9 160.44 269.79C163.48 269.69 165.87 267.14 165.77 264.09C165.67 261.04 163.11 258.65 160.07 258.76Z" fill="#4C3572"/><path d="M190.73 225.98C187.68 226.08 185.3 228.63 185.4 231.68C185.5 234.73 188.05 237.12 191.1 237.01C194.15 236.91 196.54 234.36 196.44 231.31C196.33 228.26 193.78 225.88 190.73 225.98Z" fill="#4C3572"/><path d="M138.83 208.17C135.78 208.27 133.39 210.83 133.49 213.87C133.59 216.92 136.15 219.31 139.19 219.21C142.24 219.11 144.63 216.55 144.53 213.51C144.43 210.46 141.87 208.07 138.83 208.17Z" fill="#4C3572"/><path d="M169.51 175.37C166.46 175.47 164.07 178.03 164.18 181.08C164.28 184.12 166.83 186.51 169.88 186.41C172.93 186.31 175.31 183.75 175.21 180.71C175.11 177.66 172.56 175.27 169.51 175.37Z" fill="#4C3572"/><path d="M200.18 142.59C197.13 142.69 194.74 145.24 194.84 148.29C194.95 151.34 197.5 153.73 200.55 153.63C203.6 153.52 205.98 150.97 205.88 147.92C205.78 144.88 203.23 142.49 200.18 142.59Z" fill="#4C3572"/><path d="M230.86 109.78C227.81 109.89 225.43 112.44 225.53 115.49C225.63 118.53 228.18 120.92 231.23 120.82C234.28 120.72 236.67 118.17 236.57 115.12C236.46 112.07 233.91 109.68 230.86 109.78Z" fill="#4C3572"/><path d="M138.83 208.16C135.78 208.26 133.39 210.82 133.49 213.87C133.6 216.91 136.15 219.3 139.2 219.2C142.25 219.1 144.63 216.54 144.53 213.5C144.43 210.45 141.88 208.06 138.83 208.16Z" fill="#4C3572"/><path d="M169.51 175.37C166.46 175.47 164.08 178.02 164.18 181.07C164.28 184.12 166.83 186.51 169.88 186.41C172.93 186.3 175.32 183.75 175.22 180.7C175.11 177.65 172.56 175.27 169.51 175.37Z" fill="#4C3572"/><path d="M89.25 407.73C86.2 407.83 83.81 410.38 83.91 413.43C84.02 416.48 86.57 418.87 89.62 418.76C92.66 418.66 95.05 416.11 94.95 413.06C94.85 410.01 92.3 407.63 89.25 407.73Z" fill="#4C3572"/><path d="M37.34 389.94C34.3 390.04 31.91 392.6 32.01 395.64C32.11 398.69 34.66 401.08 37.71 400.98C40.76 400.88 43.15 398.32 43.05 395.28C42.94 392.23 40.39 389.84 37.34 389.94Z" fill="#4C3572"/><path d="M16.12 339.32C13.08 339.42 10.69 341.97 10.79 345.02C10.89 348.07 13.44 350.46 16.49 350.36C19.54 350.25 21.93 347.7 21.83 344.65C21.72 341.6 19.17 339.22 16.12 339.32Z" fill="#4C3572"/><path d="M16.12 339.32C13.07 339.42 10.69 341.98 10.79 345.02C10.89 348.07 13.44 350.46 16.49 350.36C19.54 350.26 21.93 347.7 21.82 344.66C21.72 341.61 19.17 339.22 16.12 339.32Z" fill="#4C3572"/><path d="M386.58 163.14C383.53 163.24 381.14 165.8 381.24 168.84C381.34 171.89 383.9 174.28 386.94 174.18C389.99 174.08 392.38 171.52 392.28 168.47C392.18 165.43 389.62 163.04 386.58 163.14Z" fill="#4C3572"/><path d="M303.99 178.14C300.94 178.24 298.55 180.8 298.65 183.84C298.75 186.89 301.31 189.28 304.36 189.18C307.4 189.08 309.79 186.52 309.69 183.47C309.59 180.43 307.03 178.04 303.99 178.14Z" fill="#4C3572"/><path d="M334.67 145.33C331.62 145.43 329.23 147.99 329.34 151.03C329.44 154.08 331.99 156.47 335.04 156.37C338.09 156.26 340.48 153.71 340.37 150.66C340.27 147.62 337.72 145.23 334.67 145.33Z" fill="#4C3572"/><path d="M365.36 112.55C362.31 112.65 359.92 115.21 360.02 118.25C360.12 121.3 362.68 123.69 365.73 123.59C368.77 123.49 371.16 120.93 371.06 117.89C370.96 114.84 368.4 112.45 365.36 112.55Z" fill="#4C3572"/><path d="M396.02 79.74C392.97 79.84 390.58 82.39 390.69 85.44C390.79 88.49 393.34 90.88 396.39 90.78C399.44 90.67 401.83 88.12 401.72 85.07C401.62 82.03 399.07 79.64 396.02 79.74Z" fill="#4C3572"/><path d="M313.45 94.74C310.4 94.84 308.02 97.39 308.12 100.44C308.22 103.49 310.77 105.88 313.82 105.77C316.87 105.67 319.26 103.12 319.16 100.07C319.05 97.02 316.5 94.63 313.45 94.74Z" fill="#4C3572"/><path d="M344.12 61.96C341.07 62.06 338.69 64.61 338.79 67.66C338.89 70.71 341.44 73.1 344.49 72.99C347.54 72.89 349.93 70.34 349.82 67.29C349.72 64.24 347.17 61.85 344.12 61.96Z" fill="#4C3572"/><path d="M252.08 160.35C249.03 160.45 246.65 163 246.75 166.05C246.85 169.1 249.4 171.49 252.45 171.38C255.5 171.28 257.89 168.73 257.79 165.68C257.68 162.63 255.13 160.24 252.08 160.35Z" fill="#4C3572"/><path d="M282.77 127.53C279.72 127.64 277.33 130.19 277.43 133.24C277.53 136.28 280.09 138.67 283.13 138.57C286.18 138.47 288.57 135.92 288.47 132.87C288.37 129.82 285.81 127.43 282.77 127.53Z" fill="#4C3572"/><path d="M230.86 109.74C227.81 109.84 225.43 112.39 225.53 115.44C225.63 118.49 228.18 120.88 231.23 120.78C234.28 120.67 236.67 118.12 236.57 115.07C236.46 112.03 233.91 109.64 230.86 109.74Z" fill="#4C3572"/><path d="M261.55 76.95C258.5 77.05 256.11 79.61 256.21 82.65C256.31 85.7 258.87 88.09 261.92 87.99C264.96 87.89 267.35 85.33 267.25 82.29C267.15 79.24 264.6 76.85 261.55 76.95Z" fill="#4C3572"/><path d="M292.21 44.14C289.17 44.24 286.78 46.8 286.88 49.84C286.98 52.89 289.54 55.28 292.58 55.18C295.63 55.08 298.02 52.52 297.92 49.47C297.82 46.43 295.26 44.04 292.21 44.14Z" fill="#4C3572"/><path d="M322.9 11.36C319.86 11.46 317.47 14.01 317.57 17.06C317.67 20.11 320.22 22.49 323.27 22.39C326.32 22.29 328.71 19.74 328.61 16.69C328.5 13.64 325.95 11.25 322.9 11.36Z" fill="#4C3572"/><path d="M230.87 109.74C227.82 109.84 225.43 112.39 225.53 115.44C225.63 118.49 228.19 120.88 231.23 120.78C234.28 120.67 236.67 118.12 236.57 115.07C236.47 112.03 233.91 109.64 230.87 109.74Z" fill="#4C3572"/><path d="M261.55 76.96C258.5 77.06 256.11 79.61 256.21 82.66C256.32 85.71 258.87 88.09 261.92 87.99C264.96 87.89 267.35 85.34 267.25 82.29C267.15 79.24 264.6 76.85 261.55 76.96Z" fill="#4C3572"/><path d="M532.84 299.96C529.79 300.07 527.4 302.62 527.5 305.67C527.6 308.71 530.16 311.1 533.21 311C536.25 310.9 538.64 308.35 538.54 305.3C538.44 302.25 535.88 299.86 532.84 299.96Z" fill="#4C3572"/><path d="M480.93 282.14C477.89 282.25 475.5 284.8 475.6 287.85C475.7 290.9 478.25 293.28 481.3 293.18C484.35 293.08 486.74 290.53 486.64 287.48C486.54 284.43 483.98 282.04 480.93 282.14Z" fill="#4C3572"/><path d="M511.62 249.38C508.57 249.48 506.18 252.03 506.29 255.08C506.39 258.13 508.94 260.52 511.99 260.42C515.04 260.32 517.42 257.76 517.32 254.71C517.22 251.67 514.67 249.28 511.62 249.38Z" fill="#4C3572"/><path d="M542.28 216.57C539.24 216.67 536.85 219.22 536.95 222.27C537.05 225.32 539.61 227.71 542.65 227.61C545.7 227.5 548.09 224.95 547.99 221.9C547.89 218.85 545.33 216.47 542.28 216.57Z" fill="#4C3572"/><path d="M459.71 231.56C456.67 231.66 454.28 234.21 454.38 237.26C454.48 240.31 457.03 242.69 460.08 242.59C463.13 242.49 465.52 239.94 465.42 236.89C465.31 233.84 462.76 231.45 459.71 231.56Z" fill="#4C3572"/><path d="M490.38 198.77C487.33 198.87 484.95 201.42 485.05 204.47C485.15 207.52 487.7 209.91 490.75 209.8C493.8 209.7 496.19 207.15 496.09 204.1C495.98 201.05 493.43 198.66 490.38 198.77Z" fill="#4C3572"/><path d="M407.81 213.73C404.76 213.83 402.38 216.38 402.48 219.43C402.58 222.48 405.13 224.87 408.18 224.76C411.23 224.66 413.62 222.11 413.51 219.06C413.41 216.01 410.86 213.62 407.81 213.73Z" fill="#4C3572"/><path d="M438.48 180.95C435.44 181.05 433.05 183.6 433.15 186.65C433.25 189.7 435.8 192.09 438.85 191.99C441.9 191.88 444.29 189.33 444.19 186.28C444.08 183.23 441.53 180.85 438.48 180.95Z" fill="#4C3572"/><path d="M469.16 148.15C466.11 148.25 463.73 150.8 463.83 153.85C463.93 156.9 466.48 159.29 469.53 159.19C472.58 159.09 474.97 156.53 474.87 153.48C474.76 150.44 472.21 148.05 469.16 148.15Z" fill="#4C3572"/><path d="M386.57 163.14C383.53 163.24 381.14 165.8 381.24 168.85C381.34 171.89 383.89 174.28 386.94 174.18C389.99 174.08 392.38 171.53 392.28 168.48C392.18 165.43 389.62 163.04 386.57 163.14Z" fill="#4C3572"/><path d="M417.26 130.36C414.21 130.46 411.83 133.01 411.93 136.06C412.03 139.11 414.58 141.5 417.63 141.4C420.68 141.29 423.07 138.74 422.96 135.69C422.86 132.64 420.31 130.26 417.26 130.36Z" fill="#4C3572"/><path d="M605.96 368.39C602.91 368.49 600.52 371.04 600.62 374.09C600.73 377.14 603.28 379.53 606.33 379.43C609.37 379.32 611.76 376.77 611.66 373.72C611.56 370.68 609 368.29 605.96 368.39Z" fill="#4C3572"/><path d="M636.65 335.59C633.6 335.69 631.21 338.24 631.31 341.29C631.42 344.34 633.97 346.73 637.02 346.62C640.07 346.52 642.45 343.97 642.35 340.92C642.25 337.87 639.7 335.48 636.65 335.59Z" fill="#4C3572"/><path d="M554.06 350.58C551.01 350.68 548.62 353.24 548.72 356.29C548.82 359.33 551.38 361.72 554.42 361.62C557.47 361.52 559.86 358.96 559.76 355.92C559.66 352.87 557.1 350.48 554.06 350.58Z" fill="#4C3572"/><path d="M584.74 317.77C581.69 317.87 579.3 320.43 579.41 323.47C579.51 326.52 582.06 328.91 585.11 328.81C588.16 328.71 590.54 326.15 590.44 323.11C590.34 320.06 587.79 317.67 584.74 317.77Z" fill="#4C3572"/><path d="M615.42 284.99C612.38 285.09 609.99 287.65 610.09 290.69C610.19 293.74 612.75 296.13 615.79 296.03C618.84 295.93 621.23 293.37 621.13 290.33C621.02 287.28 618.47 284.89 615.42 284.99Z" fill="#4C3572"/><path d="M532.84 299.98C529.79 300.08 527.4 302.63 527.5 305.68C527.6 308.73 530.16 311.12 533.21 311.01C536.25 310.91 538.64 308.36 538.54 305.31C538.44 302.26 535.88 299.88 532.84 299.98Z" fill="#4C3572"/><path d="M563.52 267.17C560.47 267.27 558.08 269.82 558.18 272.87C558.29 275.92 560.84 278.31 563.89 278.2C566.94 278.1 569.32 275.55 569.22 272.5C569.12 269.45 566.57 267.06 563.52 267.17Z" fill="#4C3572"/><path d="M447.93 97.56C444.88 97.66 442.49 100.21 442.59 103.26C442.69 106.31 445.25 108.69 448.29 108.59C451.34 108.49 453.73 105.94 453.63 102.89C453.53 99.84 450.97 97.45 447.93 97.56Z" fill="#4C3572"/><path d="M396.02 79.73C392.97 79.83 390.58 82.38 390.69 85.43C390.79 88.48 393.34 90.87 396.39 90.76C399.44 90.66 401.83 88.11 401.72 85.06C401.62 82.01 399.07 79.63 396.02 79.73Z" fill="#4C3572"/><path d="M344.12 61.96C341.07 62.06 338.68 64.61 338.78 67.66C338.88 70.71 341.44 73.1 344.49 73C347.53 72.89 349.92 70.34 349.82 67.29C349.72 64.25 347.17 61.86 344.12 61.96Z" fill="#4C3572"/><path d="M374.81 29.15C371.76 29.25 369.37 31.8 369.47 34.85C369.57 37.9 372.13 40.29 375.17 40.18C378.22 40.08 380.61 37.53 380.51 34.48C380.41 31.43 377.85 29.05 374.81 29.15Z" fill="#4C3572"/><path d="M322.9 11.37C319.85 11.47 317.46 14.02 317.56 17.07C317.67 20.12 320.22 22.51 323.27 22.41C326.31 22.3 328.7 19.75 328.6 16.7C328.5 13.65 325.95 11.27 322.9 11.37Z" fill="#4C3572"/><path d="M322.9 11.35C319.85 11.45 317.46 14.01 317.56 17.06C317.67 20.1 320.22 22.49 323.27 22.39C326.31 22.29 328.7 19.74 328.6 16.69C328.5 13.64 325.95 11.25 322.9 11.35Z" fill="#4C3572"/><path d="M594.19 234.41C591.14 234.51 588.75 237.06 588.86 240.11C588.96 243.16 591.51 245.55 594.56 245.44C597.61 245.34 599.99 242.79 599.89 239.74C599.79 236.69 597.24 234.31 594.19 234.41Z" fill="#4C3572"/><path d="M542.29 216.58C539.24 216.68 536.85 219.23 536.95 222.28C537.05 225.33 539.61 227.72 542.66 227.62C545.7 227.51 548.09 224.96 547.99 221.91C547.89 218.87 545.34 216.48 542.29 216.58Z" fill="#4C3572"/><path d="M490.38 198.78C487.33 198.89 484.95 201.44 485.05 204.49C485.15 207.53 487.7 209.92 490.75 209.82C493.8 209.72 496.19 207.17 496.09 204.12C495.98 201.07 493.43 198.68 490.38 198.78Z" fill="#4C3572"/><path d="M521.07 166C518.02 166.1 515.63 168.65 515.73 171.7C515.83 174.75 518.39 177.14 521.43 177.04C524.48 176.93 526.87 174.38 526.77 171.33C526.67 168.28 524.11 165.9 521.07 166Z" fill="#4C3572"/><path d="M469.16 148.17C466.12 148.27 463.73 150.82 463.83 153.87C463.93 156.92 466.49 159.31 469.53 159.21C472.58 159.1 474.97 156.55 474.87 153.5C474.76 150.46 472.21 148.07 469.16 148.17Z" fill="#4C3572"/><path d="M417.26 130.37C414.21 130.47 411.82 133.02 411.93 136.07C412.03 139.12 414.58 141.51 417.63 141.4C420.68 141.3 423.06 138.75 422.96 135.7C422.86 132.65 420.31 130.26 417.26 130.37Z" fill="#4C3572"/><path d="M447.93 97.58C444.88 97.68 442.49 100.23 442.59 103.28C442.69 106.33 445.25 108.72 448.29 108.62C451.34 108.51 453.73 105.96 453.63 102.91C453.53 99.86 450.97 97.48 447.93 97.58Z" fill="#4C3572"/><path d="M636.65 335.55C633.6 335.65 631.21 338.2 631.31 341.25C631.42 344.3 633.97 346.69 637.02 346.58C640.07 346.48 642.45 343.93 642.35 340.88C642.25 337.83 639.7 335.44 636.65 335.55Z" fill="#4C3572"/><path d="M667.33 302.75C664.28 302.85 661.9 305.41 662 308.45C662.1 311.5 664.65 313.89 667.7 313.79C670.75 313.69 673.14 311.13 673.03 308.08C672.93 305.04 670.38 302.65 667.33 302.75Z" fill="#4C3572"/><path d="M615.43 284.96C612.38 285.06 609.99 287.61 610.09 290.66C610.2 293.71 612.75 296.1 615.8 295.99C618.84 295.89 621.23 293.34 621.13 290.29C621.03 287.24 618.48 284.86 615.43 284.96Z" fill="#4C3572"/><path d="M563.52 267.13C560.47 267.23 558.09 269.78 558.19 272.83C558.29 275.88 560.84 278.27 563.89 278.17C566.94 278.06 569.33 275.51 569.22 272.46C569.12 269.41 566.57 267.03 563.52 267.13Z" fill="#4C3572"/><path d="M594.19 234.37C591.15 234.47 588.76 237.03 588.86 240.07C588.96 243.12 591.51 245.51 594.56 245.41C597.61 245.31 600 242.75 599.9 239.71C599.79 236.66 597.24 234.27 594.19 234.37Z" fill="#4C3572"/></svg>