<svg viewBox="0 0 576 251" xmlns="http://www.w3.org/2000/svg">
<path d="M36 104.504H48.192V109.976C50.112 107.928 52.352 106.36 54.912 105.272C57.536 104.12 60.352 103.544 63.36 103.544C67.904 103.544 72 104.632 75.648 106.808C79.296 108.984 82.144 111.992 84.192 115.832C86.304 119.608 87.36 123.832 87.36 128.504C87.36 133.176 86.304 137.432 84.192 141.272C82.144 145.048 79.296 148.024 75.648 150.2C72 152.376 67.904 153.464 63.36 153.464C60.608 153.464 58.048 152.984 55.68 152.024C53.312 151.064 51.2 149.72 49.344 147.992V171.704H36V104.504ZM61.344 141.176C63.648 141.176 65.728 140.632 67.584 139.544C69.504 138.456 71.008 136.952 72.096 135.032C73.184 133.048 73.728 130.872 73.728 128.504C73.728 126.136 73.184 123.992 72.096 122.072C71.008 120.088 69.504 118.552 67.584 117.464C65.728 116.376 63.648 115.832 61.344 115.832C59.04 115.832 56.928 116.376 55.008 117.464C53.152 118.552 51.68 120.088 50.592 122.072C49.568 123.992 49.056 126.136 49.056 128.504C49.056 130.872 49.568 133.048 50.592 135.032C51.68 136.952 53.152 138.456 55.008 139.544C56.928 140.632 59.04 141.176 61.344 141.176Z" fill="#452B70"/>
<path d="M116.092 153.464C111.1 153.464 106.589 152.376 102.557 150.2C98.5885 148.024 95.4525 145.048 93.1485 141.272C90.9085 137.432 89 133.176 89 128.504C89 123.832 90.9085 119.608 93.1485 115.832C95.4525 111.992 98.6205 108.984 102.653 106.808C106.685 104.632 111.164 103.544 116.092 103.544C121.021 103.544 125.469 104.632 129.437 106.808C133.468 108.984 136.636 111.992 138.94 115.832C141.244 119.608 142.396 123.832 142.396 128.504C142.396 133.176 141.244 137.432 138.94 141.272C136.636 145.048 133.468 148.024 129.437 150.2C125.469 152.376 121.021 153.464 116.092 153.464ZM116.092 141.176C118.524 141.176 120.701 140.632 122.621 139.544C124.541 138.456 126.045 136.952 127.132 135.032C128.221 133.112 128.765 130.936 128.765 128.504C128.765 126.072 128.221 123.896 127.132 121.976C126.045 120.056 124.541 118.552 122.621 117.464C120.701 116.376 118.524 115.832 116.092 115.832C113.66 115.832 111.453 116.376 109.469 117.464C107.549 118.552 106.045 120.056 104.957 121.976C103.933 123.896 103.421 126.072 103.421 128.504C103.421 130.936 103.965 133.112 105.053 135.032C106.141 136.952 107.644 138.456 109.564 139.544C111.484 140.632 113.66 141.176 116.092 141.176Z" fill="#452B70"/>
<path d="M149.025 104.504H162.369V152.504H149.025V104.504ZM146.625 80.9844H164.865L156.225 99.0324H155.265L146.625 80.9844Z" fill="#452B70"/>
<path d="M173.288 104.504H185.48V109.976C187.4 107.928 189.672 106.36 192.296 105.272C194.92 104.12 197.8 103.544 200.936 103.544C205.032 103.544 208.68 104.44 211.88 106.232C215.08 108.024 217.544 110.584 219.272 113.912C221 117.176 221.864 120.984 221.864 125.336V152.504H208.424V127.448C208.36 123.864 207.4 121.048 205.544 119C203.752 116.952 201.288 115.928 198.152 115.928C195.976 115.928 193.992 116.44 192.2 117.464C190.472 118.424 189.096 119.8 188.072 121.592C187.112 123.32 186.632 125.272 186.632 127.448V152.504H173.288V104.504Z" fill="#452B70"/>
<path d="M253.588 153.464C247.316 153.464 242.676 152.12 239.668 149.432C236.66 146.68 235.156 142.68 235.156 137.432V116.6H224.308V104.504H230.26C232.18 104.504 233.652 103.992 234.676 102.968C235.7 101.88 236.212 100.376 236.212 98.4564V92.9844H248.5V104.504H265.78V116.6H248.5V134.84C248.5 137.144 249.012 138.776 250.036 139.736C251.124 140.696 252.98 141.176 255.604 141.176C258.996 141.176 262.388 140.856 265.78 140.216V152.216C263.86 152.536 261.78 152.824 259.54 153.08C257.3 153.336 255.316 153.464 253.588 153.464Z" fill="#452B70"/>
<path d="M313.521 153.464C308.593 153.464 304.145 152.376 300.177 150.2C296.273 148.024 293.201 145.048 290.961 141.272C288.721 137.496 287.601 133.24 287.601 128.504C287.601 123.832 288.721 119.608 290.961 115.832C293.201 111.992 296.305 108.984 300.273 106.808C304.241 104.632 308.657 103.544 313.521 103.544C317.873 103.544 321.809 104.44 325.329 106.232C328.913 107.96 331.793 110.36 333.969 113.432C336.209 116.504 337.521 119.96 337.905 123.8H324.657C323.953 121.368 322.609 119.416 320.625 117.944C318.641 116.408 316.273 115.64 313.521 115.64C311.089 115.64 308.913 116.216 306.993 117.368C305.137 118.456 303.665 119.992 302.577 121.976C301.489 123.896 300.945 126.072 300.945 128.504C300.945 130.936 301.489 133.144 302.577 135.128C303.665 137.048 305.137 138.584 306.993 139.736C308.913 140.824 311.089 141.368 313.521 141.368C316.273 141.368 318.641 140.6 320.625 139.064C322.673 137.528 324.017 135.544 324.657 133.112H337.905C337.457 136.952 336.113 140.44 333.873 143.576C331.697 146.648 328.817 149.08 325.233 150.872C321.713 152.6 317.809 153.464 313.521 153.464Z" fill="#452B70"/>
<path d="M356.208 153.56C351.088 153.56 347.056 152.344 344.112 149.912C341.168 147.48 339.696 144.184 339.696 140.024C339.696 136.888 340.592 134.2 342.384 131.96C344.24 129.72 346.96 127.992 350.544 126.776C354.128 125.496 358.576 124.696 363.888 124.376C367.152 124.12 369.488 123.672 370.896 123.032C372.368 122.392 373.104 121.432 373.104 120.152C373.104 118.488 372.272 117.08 370.608 115.928C368.944 114.776 366.832 114.2 364.272 114.2C361.648 114.2 359.472 114.84 357.744 116.12C356.016 117.336 354.864 119.032 354.288 121.208H341.808C342.32 117.624 343.6 114.52 345.648 111.896C347.76 109.208 350.448 107.16 353.712 105.752C357.04 104.28 360.752 103.544 364.848 103.544C369.072 103.544 372.784 104.344 375.984 105.944C379.184 107.544 381.616 109.816 383.28 112.76C385.008 115.704 385.872 119.16 385.872 123.128V140.792H391.44V152.504L374.736 152.6V146.552C372.688 148.728 370 150.456 366.672 151.736C363.408 152.952 359.92 153.56 356.208 153.56ZM359.376 143.288C361.872 143.288 364.208 142.712 366.384 141.56C368.624 140.408 370.384 138.872 371.664 136.952C373.008 135.032 373.68 132.984 373.68 130.808V130.232C373.168 130.616 372.144 131.032 370.608 131.48C369.072 131.928 367.376 132.248 365.52 132.44C365.392 132.44 365.232 132.472 365.04 132.536C364.912 132.536 364.752 132.536 364.56 132.536C360.528 132.856 357.616 133.528 355.824 134.552C354.096 135.512 353.232 136.888 353.232 138.68C353.232 140.152 353.744 141.304 354.768 142.136C355.856 142.904 357.392 143.288 359.376 143.288Z" fill="#452B70"/>
<path d="M397.631 104.504H409.823V110.072C411.679 107.96 413.823 106.36 416.255 105.272C418.751 104.12 421.439 103.544 424.319 103.544C427.711 103.544 430.751 104.216 433.439 105.56C436.127 106.84 438.367 108.696 440.159 111.128C442.079 108.696 444.447 106.84 447.263 105.56C450.079 104.216 453.119 103.544 456.383 103.544C460.671 103.544 464.415 104.408 467.615 106.136C470.815 107.864 473.279 110.328 475.007 113.528C476.799 116.728 477.695 120.472 477.695 124.76V152.504H464.255V126.872C464.255 123.544 463.359 120.888 461.567 118.904C459.775 116.856 457.439 115.832 454.559 115.832C452.639 115.832 450.911 116.344 449.375 117.368C447.839 118.392 446.591 119.8 445.631 121.592C444.735 123.32 444.287 125.272 444.287 127.448V152.504H430.943V126.872C430.879 123.544 429.951 120.888 428.159 118.904C426.367 116.856 424.031 115.832 421.151 115.832C419.295 115.832 417.567 116.344 415.967 117.368C414.431 118.392 413.215 119.8 412.319 121.592C411.423 123.32 410.975 125.272 410.975 127.448V152.504H397.631V104.504Z" fill="#452B70"/>
<path d="M487.706 104.504H499.898V109.976C501.818 107.928 504.058 106.36 506.618 105.272C509.242 104.12 512.058 103.544 515.066 103.544C519.61 103.544 523.706 104.632 527.354 106.808C531.002 108.984 533.85 111.992 535.898 115.832C538.01 119.608 539.066 123.832 539.066 128.504C539.066 133.176 538.01 137.432 535.898 141.272C533.85 145.048 531.002 148.024 527.354 150.2C523.706 152.376 519.61 153.464 515.066 153.464C512.314 153.464 509.754 152.984 507.386 152.024C505.018 151.064 502.906 149.72 501.05 147.992V171.704H487.706V104.504ZM513.05 141.176C515.354 141.176 517.434 140.632 519.29 139.544C521.21 138.456 522.714 136.952 523.802 135.032C524.89 133.048 525.434 130.872 525.434 128.504C525.434 126.136 524.89 123.992 523.802 122.072C522.714 120.088 521.21 118.552 519.29 117.464C517.434 116.376 515.354 115.832 513.05 115.832C510.746 115.832 508.634 116.376 506.714 117.464C504.858 118.552 503.386 120.088 502.298 122.072C501.274 123.992 500.762 126.136 500.762 128.504C500.762 130.872 501.274 133.048 502.298 135.032C503.386 136.952 504.858 138.456 506.714 139.544C508.634 140.632 510.746 141.176 513.05 141.176Z" fill="#452B70"/>
<path d="M90.1289 101.5L115.629 80L141.129 101.5" fill="none" stroke="#452B70" stroke-width="12" stroke-linecap="round" stroke-linejoin="round"/>
</svg>
