<svg width="319" height="371" viewBox="0 0 319 371" fill="none" xmlns="http://www.w3.org/2000/svg"><g clip-path="url(#clip0_407_510)"><path d="M318.08 214.34C318.08 270.24 274.88 335.55 153.03 335.55C44.97 335.55 9.86 297.54 1.95 259.25C0.58 252.71 0.03 246.18 0.03 239.83C0.03 212.26 10.69 188.57 30.38 171.68C32 170.28 33.71 168.93 35.45 167.62C34.74 166.46 34.1 165.27 33.49 164.05C31.51 160.2 29.86 156.05 28.58 151.62C28.12 150.16 27.72 148.69 27.39 147.16C26.41 143.13 25.74 138.92 25.31 134.52C24.45 120.54 26.62 94.16 33.61 74.71C54.16 25.31 105.12 20.64 123.44 20.64C159.9 20.64 183.19 33.86 201.24 57.8C207.47 65.92 211.22 75.2 213.17 84.97C215.53 96.51 215.31 108.75 213.66 120.6H213.69C223.13 118.68 241.84 116.23 251.58 116.23C269.44 116.23 288.1 125.79 301.05 145.97C311.37 161.94 318.08 184.54 318.08 214.34Z" fill="#CF6396"/><path d="M305.66 185.45C305.66 241.36 262.42 306.66 140.6 306.66C94.62 306.66 29.68 298.82 1.95 259.25C0.58 252.71 0.03 246.18 0.03 239.83C0.03 212.26 10.69 188.57 30.38 171.68C32 170.28 33.71 168.93 35.45 167.62C34.74 166.46 34.1 165.27 33.49 164.05C31.51 160.2 29.86 156.05 28.58 151.62C28.12 150.16 27.72 148.69 27.39 147.16C26.41 143.13 25.74 138.92 25.31 134.52C24.45 120.54 26.62 94.16 33.61 74.71C54.16 25.31 105.12 20.64 123.44 20.64C159.9 20.64 183.19 33.86 201.24 57.8C207.47 65.92 211.22 75.2 213.17 84.97C215.53 96.51 215.31 108.75 213.66 120.6H213.69C223.13 118.68 241.84 116.23 251.58 116.23C269.44 116.23 288.1 125.79 301.05 145.97C304.4 158.86 305.66 172.44 305.66 185.45Z" fill="#FF8ABF"/><path d="M202.95 74.16C195.71 73.58 188.17 73.25 180.38 73.25C128.26 73.25 86.04 87.38 86.04 104.82C86.04 122.25 128.3 136.39 180.38 136.39C188.17 136.39 195.71 136.05 202.95 135.47V74.16Z" fill="#CF6396"/><path d="M213.66 120.6H213.69C205.3 159.84 167.74 179.84 121.03 179.84C115.35 179.84 109.92 179.65 104.69 179.28C83.99 177.91 66.83 173.88 53.16 167.84C43.11 163.44 34.96 157.97 28.58 151.62C28.12 150.16 27.72 148.69 27.39 147.16C48.42 159.5 80.42 162.31 106.89 162.31C138.16 162.31 164.41 152.75 183.31 136.36C191.19 129.55 197.79 121.52 202.92 112.48C207.65 104.11 211.13 94.89 213.18 84.97C215.53 96.51 215.31 108.76 213.66 120.6Z" fill="#CF6396"/><path d="M115.53 170.09C112.79 173.6 109.12 176.72 104.7 179.28C96.12 184.38 84.76 187.47 72.3 187.47C54.44 187.47 38.84 181.12 30.38 171.68C32 170.28 33.71 168.93 35.45 167.62C34.75 166.46 34.11 165.27 33.5 164.05C40.03 165.73 46.69 166.89 53.16 167.83C56.39 168.32 59.6 168.75 62.68 169.18C80.27 171.56 98.1 172.87 115.53 170.09Z" fill="#CF6396"/><path d="M87.02 82.04C83.02 81.43 79.08 80.85 74.65 80.06C67.6 79.23 60.42 78.25 53.22 77.31C46.71 76.42 40.03 75.51 33.62 74.74C33.62 74.74 25.37 73.58 20.64 73.34C15.75 73.06 9.83 73.77 5.34 77.71C2.9 79.78 0.03 83.6 0.03 89.55C-0.27 96.82 1.16 117.67 10.99 128.27C17.1 134.86 25.31 134.59 25.31 134.59C25.98 134.53 26.69 134.46 27.3 134.28C36.36 131.84 41.52 124.79 45.71 119.11L46.9 117.49C47.08 117.24 47.26 117 47.39 116.72C49.13 113.92 51.75 112.42 54.44 112.54C57.25 112.66 59.69 114.53 61.25 118.04C71.87 138.28 85.98 149.15 102.22 149.52L102.59 149.58C103.41 149.64 104.21 149.7 105.03 149.7C111.2 149.7 117.21 147.26 122.34 142.71C130.1 135.78 135.2 124.17 135.07 113.92C135.26 89.31 108.48 85.31 86.99 82.07L87.02 82.04Z" fill="#452B70"/><path d="M126.53 187.89C124.11 187.89 122.1 186.03 121.95 183.59C121.79 181.05 123.72 178.89 126.25 178.73C144.42 177.63 160.63 173.6 174.37 166.74C176.63 165.6 179.38 166.52 180.51 168.78C181.64 171.04 180.72 173.79 178.46 174.92C163.59 182.37 146.19 186.7 126.77 187.89C126.68 187.89 126.59 187.89 126.5 187.89H126.53Z" fill="#452B70"/><path d="M65.86 176.84C65.86 176.84 65.64 176.84 65.55 176.84C56.94 176.54 35.78 174.77 25.1 164.51C24.82 164.23 24.55 163.96 24.3 163.65C19.02 157.09 21.98 151.81 24.21 149.24C30.29 141.91 48.3 128.66 61.58 138.1C65.92 141.52 69.61 144.78 73.49 148.17C77.19 151.44 81.03 154.83 85.46 158.37C89.06 161.27 89.86 166.46 87.23 170.28C83.63 175.53 76.82 176.32 68.94 176.72L65.95 176.84H65.89H65.86Z" fill="#FFE8C7"/><mask id="mask0_407_510" style="mask-type:luminance" maskUnits="userSpaceOnUse" x="21" y="134" width="68" height="43"><path d="M65.86 176.84C65.86 176.84 65.64 176.84 65.55 176.84C56.94 176.54 35.78 174.77 25.1 164.51C24.82 164.23 24.55 163.96 24.3 163.65C19.02 157.09 21.98 151.81 24.21 149.24C30.29 141.91 48.3 128.66 61.58 138.1C65.92 141.52 69.61 144.78 73.49 148.17C77.19 151.44 81.03 154.83 85.46 158.37C89.06 161.27 89.86 166.46 87.23 170.28C83.63 175.53 76.82 176.32 68.94 176.72L65.95 176.84H65.89H65.86Z" fill="white"/></mask><g mask="url(#mask0_407_510)"><path d="M31.63 149.33C40.88 152.17 49.19 157.94 57.98 161.88C62.87 164.08 68.79 167.01 74.1 167.87C79.81 168.78 87.23 165.48 92.82 164.08C96.39 168.93 95.23 176.14 91.44 180.81C87.66 185.48 81.8 188.02 75.97 189.51C55.3 194.76 32 187.93 17.47 172.32C15.15 169.85 12.95 167.07 11.57 163.96C9.74 159.74 11.48 158.31 14.78 155.47C18.99 151.81 25.77 147.53 31.63 149.33Z" fill="#F6AB2E"/></g><path d="M77 172.6C72.88 172.6 68.97 171.71 65.4 170.67C56.3 168.02 48.21 163.59 41.74 160.02C37.31 157.61 33.52 155.5 30.41 154.46C29.13 154.03 26.41 154.52 23.14 156.54C21.01 157.85 18.17 157.21 16.85 155.04C15.54 152.87 16.21 150.06 18.35 148.75C23.66 145.49 29.13 144.39 33.34 145.79C37.22 147.07 41.37 149.36 46.16 151.99C52.58 155.5 59.87 159.5 67.99 161.88C74.56 163.8 80.09 164.41 85.67 161.06C87.84 159.77 90.65 160.48 91.96 162.64C93.28 164.81 92.54 167.62 90.37 168.93C85.79 171.65 81.31 172.63 77.03 172.63L77 172.6Z" fill="#452B70"/><path d="M13.53 105.03C11.51 105.03 9.65 103.69 9.1 101.61C7.08 94.01 7.69 88.33 10.93 84.7C14.69 80.48 20.12 81.12 20.73 81.22C23.24 81.58 24.98 83.9 24.61 86.41C24.24 88.91 21.89 90.65 19.42 90.28C19.42 90.28 19.42 90.28 19.39 90.28C19.17 90.28 18.23 90.28 17.77 90.83C17.53 91.14 16.3 93 17.95 99.29C18.59 101.73 17.13 104.24 14.69 104.88C14.29 104.97 13.89 105.03 13.53 105.03Z" fill="#9384BC"/><path d="M53.8 66.65C53 66.65 52.21 66.44 51.51 66.04C49.31 64.76 48.58 61.95 49.86 59.78C50.22 59.14 59.35 43.81 80.6 36.18C82.98 35.33 85.61 36.55 86.47 38.93C87.32 41.31 86.1 43.94 83.69 44.79C65.55 51.32 57.83 64.27 57.73 64.39C56.88 65.86 55.35 66.65 53.77 66.65H53.8Z" fill="#F6AB2E"/><path d="M15.6 221.51C15.27 221.51 14.96 221.48 14.62 221.42C12.15 220.87 10.59 218.46 11.11 215.98C11.27 215.28 14.99 198.58 26.56 187.86C28.43 186.15 31.33 186.25 33.04 188.11C34.75 189.97 34.65 192.87 32.79 194.58C23.36 203.31 20.09 217.78 20.06 217.94C19.6 220.07 17.68 221.54 15.6 221.54V221.51Z" fill="#F6BED9"/><path d="M218.91 122.71C215.59 123.35 212.2 123.93 208.78 124.42C189.18 127.29 168.14 127.56 147.16 125.37C99.87 120.45 52.97 103.02 23.48 74.16C20.21 70.96 20.79 65.52 24.61 62.99L55.6 42.17C63.41 17.16 70.38 -10.93 143.16 4.31C192.75 14.69 210.88 25.01 215.95 39.66C219.52 49.92 216.65 62.29 213.69 78.25V78.32L224.47 113.43C225.75 117.55 223.16 121.89 218.91 122.71Z" fill="#F6AB2E"/><path d="M208.78 124.42C189.18 127.29 168.14 127.56 147.17 125.36C147.44 109.33 147.72 93.28 147.99 77.22C154.04 77.34 160.05 77.25 166.03 77.15H166.1C177.06 76.97 188.02 76.7 199.13 77.12L199.59 79.32C202.64 94.34 205.73 109.4 208.78 124.42Z" fill="#F6AB2D"/><path d="M213.69 78.25C213.08 78.37 212.47 78.47 211.86 78.53C207.77 78.99 203.68 79.23 199.59 79.32C188.38 79.63 177.15 78.71 166.03 77.15C165.27 77.06 164.53 76.97 163.77 76.85C155.74 75.69 147.8 74.22 139.84 72.67C136.23 71.96 132.63 71.14 128.97 70.86C127.84 70.77 117.88 68.82 117.61 69.34C124.78 56.21 129.7 41.92 132.08 27.14C132.08 28.7 150.83 33.31 152.75 33.58C160.38 34.62 167.92 36.58 175.62 37.61C188.96 39.42 202.49 40.12 215.95 39.66C219.52 49.92 216.65 62.28 213.69 78.25Z" fill="#F6AB2D"/><path d="M182.67 84.09C154.83 84.09 127.14 78.5 101.33 67.51C99.01 66.53 97.92 63.81 98.92 61.49C99.9 59.17 102.59 58.07 104.94 59.08C138.22 73.25 174.76 78.04 210.58 72.97C213.08 72.61 215.4 74.35 215.77 76.85C216.14 79.35 214.37 81.67 211.86 82.04C202.18 83.41 192.44 84.09 182.7 84.09H182.67Z" fill="#452B70"/><path d="M170.43 133.3C155.04 133.3 146.53 131.38 146.13 131.29C143.66 130.71 142.13 128.27 142.71 125.79C143.29 123.32 145.73 121.79 148.21 122.37C148.42 122.4 158.65 124.66 176.78 124.05C179.32 123.99 181.42 125.95 181.51 128.48C181.61 131.01 179.62 133.12 177.09 133.21C174.77 133.3 172.54 133.34 170.46 133.34L170.43 133.3Z" fill="#452B70"/><path d="M193.02 44.52C180.9 44.52 141.55 37 128.94 30.62C126.68 29.46 125.79 26.72 126.92 24.46C128.08 22.2 130.83 21.31 133.09 22.44C145.67 28.82 186.73 36 193.91 35.33C196.38 35.08 198.67 36.91 198.92 39.45C199.16 41.95 197.33 44.21 194.79 44.45C194.31 44.52 193.7 44.52 193.02 44.52Z" fill="#452B70"/><path d="M129.52 102.98C127.6 102.98 125.79 101.76 125.15 99.81C124.02 96.3 120.27 94.07 117.12 93.18C112.88 91.99 108.06 92.24 103.35 92.48C100.79 92.6 98.68 90.68 98.53 88.15C98.41 85.61 100.33 83.47 102.86 83.32C108.02 83.05 113.89 82.74 119.6 84.36C126.62 86.34 131.96 91.05 133.85 96.97C134.62 99.38 133.31 101.95 130.89 102.74C130.44 102.89 129.95 102.95 129.49 102.95L129.52 102.98Z" fill="#FFE8C7"/><path d="M201.07 363.5C204.14 360.43 203.74 355.03 200.16 351.46C196.58 347.88 191.19 347.47 188.11 350.55C185.04 353.62 185.44 359.02 189.02 362.6C192.6 366.17 197.99 366.58 201.07 363.5Z" fill="#452B70"/><path d="M195.86 370.17C195.53 370.17 195.22 370.17 194.89 370.14C191.53 369.9 188.29 368.37 185.79 365.87C180.41 360.49 180.02 352.19 184.87 347.33C189.73 342.48 198.03 342.88 203.41 348.25C208.78 353.62 209.18 361.93 204.32 366.78C202.12 368.98 199.1 370.17 195.89 370.17H195.86ZM193.27 353.07C192.5 353.07 191.8 353.32 191.31 353.81C190.06 355.06 190.49 357.62 192.23 359.36C193.18 360.31 194.4 360.89 195.56 360.98C196.08 360.98 197.09 360.98 197.82 360.28C199.07 359.03 198.67 356.46 196.9 354.69C195.83 353.62 194.46 353.04 193.27 353.04V353.07Z" fill="#452B70"/><path d="M204.9 362.23C207.97 359.15 207.56 353.76 203.99 350.18C200.41 346.6 195.02 346.2 191.94 349.27C188.87 352.35 189.27 357.74 192.85 361.32C196.43 364.9 201.82 365.3 204.9 362.23Z" fill="#452B70"/><path d="M199.71 368.89C199.37 368.89 199.07 368.89 198.73 368.86C195.37 368.61 192.14 367.09 189.63 364.58C184.26 359.21 183.86 350.9 188.72 346.05C193.57 341.19 201.88 341.62 207.25 346.96C209.75 349.47 211.28 352.7 211.53 356.06C211.8 359.64 210.58 363.09 208.17 365.47C205.97 367.67 202.95 368.86 199.74 368.86L199.71 368.89ZM197.11 351.79C196.35 351.79 195.65 352.03 195.16 352.52C193.91 353.77 194.34 356.34 196.08 358.08C197.02 359.02 198.24 359.61 199.4 359.7C199.92 359.7 200.93 359.7 201.66 359C202.37 358.29 202.43 357.29 202.37 356.74C202.27 355.57 201.69 354.35 200.75 353.41C199.68 352.34 198.31 351.76 197.11 351.76V351.79Z" fill="#452B70"/><path d="M254.93 349.47C258 346.39 257.6 341 254.02 337.42C250.44 333.85 245.05 333.44 241.97 336.52C238.9 339.59 239.3 344.99 242.88 348.56C246.46 352.14 251.85 352.55 254.93 349.47Z" fill="#452B70"/><path d="M249.75 356.09C246.18 356.09 242.48 354.63 239.65 351.79C237.14 349.29 235.61 346.05 235.37 342.69C235.09 339.12 236.32 335.67 238.73 333.26C241.14 330.84 244.56 329.62 248.13 329.9C251.49 330.14 254.73 331.67 257.23 334.17C262.61 339.55 263 347.85 258.15 352.7C255.89 354.96 252.87 356.09 249.72 356.09H249.75ZM247.16 339.03C246.61 339.03 245.81 339.15 245.2 339.73C244.5 340.43 244.44 341.44 244.5 341.99C244.59 343.15 245.17 344.37 246.12 345.32C247.89 347.09 250.42 347.48 251.71 346.23C252.96 344.98 252.53 342.42 250.79 340.68C249.84 339.73 248.62 339.15 247.46 339.06C247.37 339.06 247.28 339.06 247.16 339.06V339.03Z" fill="#452B70"/><path d="M258.81 348.17C261.88 345.1 261.48 339.7 257.9 336.13C254.32 332.55 248.93 332.14 245.85 335.22C242.78 338.3 243.18 343.69 246.76 347.27C250.34 350.84 255.73 351.25 258.81 348.17Z" fill="#452B70"/><path d="M253.6 354.81C250.03 354.81 246.33 353.35 243.49 350.51C240.99 348 239.46 344.77 239.22 341.41C238.94 337.84 240.16 334.39 242.58 331.97C244.99 329.56 248.41 328.34 251.98 328.62C255.34 328.86 258.57 330.39 261.08 332.89C266.45 338.26 266.85 346.57 262 351.42C259.74 353.68 256.71 354.81 253.57 354.81H253.6ZM251 337.75C250.45 337.75 249.66 337.87 249.05 338.45C248.35 339.15 248.29 340.16 248.35 340.71C248.44 341.87 249.02 343.09 249.97 344.03C251.74 345.81 254.27 346.2 255.55 344.95C256.8 343.7 256.38 341.13 254.64 339.39C253.69 338.45 252.47 337.87 251.31 337.77C251.22 337.77 251.12 337.77 251 337.77V337.75Z" fill="#452B70"/><path d="M170.71 348.56C173.78 345.48 173.38 340.09 169.8 336.51C166.22 332.93 160.83 332.53 157.75 335.6C154.68 338.68 155.08 344.07 158.66 347.65C162.24 351.23 167.63 351.63 170.71 348.56Z" fill="#452B70"/><path d="M165.51 355.18C161.94 355.18 158.25 353.71 155.41 350.87C152.91 348.37 151.38 345.13 151.13 341.78C150.86 338.2 152.08 334.75 154.49 332.34C156.9 329.93 160.32 328.71 163.9 328.98C167.25 329.23 170.49 330.75 173 333.26C178.37 338.63 178.76 346.94 173.91 351.79C171.65 354.05 168.63 355.18 165.48 355.18H165.51ZM162.92 338.11C162.37 338.11 161.58 338.23 160.97 338.81C160.26 339.52 160.2 340.52 160.26 341.07C160.35 342.23 160.94 343.45 161.88 344.4C163.65 346.17 166.19 346.57 167.47 345.32C168.72 344.07 168.29 341.5 166.55 339.76C165.61 338.81 164.38 338.23 163.22 338.14C163.13 338.14 163.04 338.14 162.92 338.14V338.11Z" fill="#452B70"/><path d="M174.56 347.28C177.64 344.2 177.24 338.81 173.66 335.23C170.08 331.66 164.69 331.25 161.61 334.33C158.53 337.4 158.94 342.8 162.52 346.37C166.09 349.95 171.49 350.36 174.56 347.28Z" fill="#452B70"/><path d="M169.39 353.9C165.82 353.9 162.12 352.43 159.28 349.59C156.78 347.09 155.25 343.85 155.01 340.49C154.73 336.92 155.96 333.47 158.37 331.06C160.78 328.65 164.2 327.43 167.77 327.7C171.13 327.94 174.37 329.47 176.87 331.98C179.37 334.48 180.9 337.71 181.14 341.07C181.42 344.65 180.2 348.1 177.79 350.51C175.53 352.77 172.5 353.9 169.36 353.9H169.39ZM166.79 336.83C166.25 336.83 165.45 336.95 164.84 337.53C164.14 338.23 164.08 339.24 164.14 339.79C164.23 340.95 164.81 342.17 165.76 343.12C167.53 344.89 170.06 345.29 171.34 344.04C172.01 343.36 172.11 342.45 172.05 341.78C171.95 340.62 171.37 339.39 170.43 338.45C169.48 337.5 168.26 336.92 167.1 336.83C167.01 336.83 166.92 336.83 166.79 336.83Z" fill="#452B70"/><path d="M152.23 343.49L151.99 343.33C151.99 343.33 152.14 343.46 152.23 343.49Z" fill="#9384BC"/><path d="M273.96 321.23C273.99 331.21 265.48 341.44 254.97 344.07L189.54 360.34C184.6 361.56 180.11 360.89 176.72 358.81L153.91 344.43L152.23 343.45C152.23 343.45 152.08 343.36 151.99 343.3C148.6 340.89 146.49 336.92 146.46 331.98L146.22 218.88C146.19 208.9 154.71 198.67 165.21 196.05L225.57 183.22C230.06 182.09 234.21 182.55 237.48 184.23L265.02 195.16C270.24 197.08 273.69 201.82 273.72 208.14L273.81 247.49L273.9 298.94L273.96 321.23Z" fill="#684E9B"/><path d="M176.81 350.81C174.28 350.81 172.23 348.77 172.23 346.23L171.93 234.88C171.9 222.73 181.76 210.73 194.4 207.59L251.74 194.98C254.21 194.43 256.65 195.98 257.2 198.46C257.75 200.93 256.19 203.37 253.72 203.92L196.5 216.5C188.2 218.58 181.09 226.97 181.09 234.85L181.39 346.2C181.39 348.74 179.34 350.78 176.81 350.78V350.81Z" fill="#9384BC"/><path d="M159.74 299.8C157.21 299.8 155.16 297.75 155.16 295.25L154.89 224.87C154.89 213.69 163.93 202.67 175.53 199.8C178 199.19 180.47 200.69 181.09 203.13C181.7 205.57 180.2 208.08 177.76 208.69C170.31 210.55 164.05 217.94 164.08 224.84L164.35 295.19C164.35 297.72 162.31 299.76 159.8 299.8H159.74Z" fill="#9384BC"/><path d="M202.61 326.57C200.07 326.57 198.03 324.53 198.03 321.99V240.84C198.03 238.3 200.07 236.26 202.61 236.26C205.14 236.26 207.19 238.3 207.19 240.84V321.99C207.19 324.53 205.14 326.57 202.61 326.57Z" fill="#452B70"/><path d="M229.45 320.19C226.91 320.19 224.87 318.14 224.87 315.61V234.46C224.87 231.92 226.91 229.88 229.45 229.88C231.98 229.88 234.03 231.92 234.03 234.46V315.61C234.03 318.14 231.98 320.19 229.45 320.19Z" fill="#452B70"/><path d="M254.94 313.47C252.41 313.47 250.36 311.43 250.36 308.89V227.74C250.36 225.21 252.41 223.16 254.94 223.16C257.48 223.16 259.52 225.21 259.52 227.74V308.89C259.52 311.43 257.48 313.47 254.94 313.47Z" fill="#452B70"/><path d="M273.9 298.94C269.44 299.46 264.8 299.73 260.01 299.73C228.32 299.73 202.61 287.89 202.61 273.23C202.61 258.57 228.32 246.73 260.01 246.73C264.77 246.73 269.38 247 273.81 247.49L273.9 298.94Z" fill="#452B70"/><path d="M270.42 272.07C248.69 281.2 221.76 278.48 202.67 264.44C193.18 256.9 189.3 249.6 189.21 242.73C189 226.55 209.63 212.69 226.52 203.25C236.99 196.69 248.66 190.76 259.92 188.14C277.66 183.96 294.45 187.96 304.31 210.34L304.53 210.92C315.49 237.81 294.73 262.45 270.42 272.07Z" fill="#CF6396"/><path d="M233.54 259.37C211.83 262.97 194.19 255.65 189.21 242.73C189 226.55 209.63 212.69 226.52 203.25C236.99 196.69 248.66 190.76 259.92 188.14C269.11 190 276.87 194.89 281.29 203.62L281.48 204.05C291.67 233.72 261.26 255.49 233.54 259.37Z" fill="#FF8ABF"/><path d="M263.07 278.7C261.11 278.7 259.31 277.44 258.7 275.49C257.94 273.08 259.28 270.51 261.69 269.75C283.43 262.91 296.62 252.07 300.87 237.6C305.6 221.39 297.63 204.53 293.26 199.31C291.64 197.39 291.89 194.49 293.84 192.87C295.8 191.25 298.67 191.5 300.29 193.45C304.71 198.73 315.95 218.64 309.66 240.16C304.53 257.78 289.32 270.67 264.47 278.48C264.01 278.64 263.56 278.7 263.1 278.7H263.07Z" fill="#452B70"/><path d="M201.33 230.61C200.14 230.61 198.91 230.15 198.03 229.2C196.29 227.37 196.35 224.47 198.15 222.73C209.91 211.43 216.13 208.17 216.81 207.83C219.07 206.7 221.81 207.62 222.94 209.88C224.07 212.14 223.16 214.85 220.93 216.01C220.78 216.07 215.16 219.1 204.5 229.32C203.62 230.18 202.46 230.61 201.33 230.61Z" fill="#F6BED9"/><path d="M192.72 203.99C190.18 203.99 188.14 201.94 188.14 199.41V107.99C188.14 105.8 189.73 103.9 191.89 103.48L226.67 97.09C228.01 96.85 229.39 97.22 230.43 98.07C231.46 98.96 232.07 100.24 232.07 101.58V193C232.07 195.53 230.03 197.58 227.5 197.58C224.96 197.58 222.91 195.53 222.91 193V107.08L197.3 111.78V199.38C197.3 201.91 195.25 203.96 192.72 203.96V203.99Z" fill="#452B70"/><path d="M186.21 112.45C182.61 112.45 179.38 109.89 178.7 106.19C177.94 102.04 180.69 98.07 184.84 97.31L232.56 88.58C236.72 87.81 240.68 90.56 241.45 94.71C242.21 98.86 239.46 102.83 235.31 103.6L187.59 112.33C187.13 112.42 186.67 112.45 186.21 112.45Z" fill="#452B70"/><path d="M239.83 204.11C238.18 204.11 236.59 203.22 235.77 201.63C234.61 199.41 235.46 196.63 237.72 195.47C245.54 191.38 253.91 188.44 262.55 186.7C265.02 186.18 267.43 187.8 267.92 190.31C268.41 192.78 266.82 195.19 264.32 195.68C256.5 197.24 248.99 199.89 241.94 203.59C241.26 203.95 240.53 204.11 239.83 204.11Z" fill="#F6BED9"/><path d="M68.94 48.91C68.61 48.91 68.27 48.88 67.9 48.79C65.43 48.21 63.9 45.77 64.45 43.3C66.8 33.04 70.93 23.39 76.73 14.63C78.13 12.52 80.97 11.94 83.08 13.34C85.19 14.75 85.77 17.59 84.36 19.69C79.17 27.54 75.48 36.18 73.37 45.37C72.88 47.48 70.99 48.94 68.91 48.94L68.94 48.91Z" fill="#FFE8C7"/></g><defs><clipPath id="clip0_407_510"><rect width="318.08" height="370.17" fill="white"/></clipPath></defs></svg>